<svg width="46" height="46" fill="none" xmlns="http://www.w3.org/2000/svg"><path fill-rule="evenodd" clip-rule="evenodd" d="M12.697 12.739c2.782 1.604 4.563 4.071 5.071 5.903-1.84.478-6.192.249-8.97-1.356-2.55-1.471-3.149-3.733-3.622-5.518-.04-.162-.081-.318-.126-.47 1.846-.477 4.87-.164 7.647 1.44zm14.826 5.903c.503-1.832 2.288-4.3 5.07-5.903 2.783-1.604 5.806-1.918 7.647-1.439-.04.152-.085.308-.126.47-.472 1.779-1.071 4.044-3.621 5.517-2.778 1.604-7.13 1.833-8.97 1.355zm4.96 11.576a18.117 18.117 0 002.38-4.474c-3.547 2.91-8.105 4.706-12.215 4.706-4.11 0-8.673-1.798-12.22-4.706a18.129 18.129 0 002.38 4.476c3.22 1.094 6.645 1.712 9.84 1.712 3.194 0 6.615-.62 9.835-1.713zm-2.022 2.33c-2.606.672-5.274 1.039-7.813 1.039-2.539 0-5.212-.368-7.818-1.038 2.385 2.29 5.222 3.664 7.818 3.664 2.595 0 5.425-1.374 7.813-3.664z" fill="#03FFA1"/></svg>