<svg width="124" height="124" fill="none" xmlns="http://www.w3.org/2000/svg"><path fill-rule="evenodd" clip-rule="evenodd" d="M77.424 58.79a24.946 24.946 0 015.285 5.506H42.166a24.81 24.81 0 015.293-5.506h29.965zm1.6-22.064l3.453 8.58-8.008-6.892.807-5.203 3.74 3.515h.007zm3.339-9.215l8.224 4.23-10.558.022-2.802-4.464 5.13.218.006-.006zm-5.842-6.975l6.69-6.387-3.442 9.983-5.131 1.178 1.883-4.774zm-7.039-1.363L70.666 10l3.609 9.921-3.246 4.156-1.547-4.904zm-10.06 22.564l-.06-.48c-.542-9.199 7.172-12.941 15.015-14.234l.692 4.259c-5.379.885-11.726 3.062-11.4 9.623l.098.827h4.908v4.58H56.193V41.74h3.22l.008-.002zm-11.963 15.49v-6.672a2.938 2.938 0 012.929-2.93h24.099a2.94 2.94 0 012.93 2.93v6.671H74.47v-5.424h-1.89v5.424h-1.43v-5.424h-1.892v5.424H67.83v-5.424h-1.892v5.424H47.459zm-8.215 31.476h46.382c3.786 0 3.786 5.726 0 5.726H39.244c-3.786 0-3.786-5.726 0-5.726zm-2.406-11.337H88.03c3.786 0 3.786 5.727 0 5.727H36.85c-3.798 0-3.798-5.727-.012-5.727zm2.406-11.338h46.382c3.786 0 3.786 5.726 0 5.726H39.244c-3.786 0-3.786-5.726 0-5.726zm47.384 7.347c.157.741.278 1.496.363 2.26H37.875c.085-.764.208-1.519.363-2.26.33.073.666.11 1.004.109h46.382a4.46 4.46 0 001.004-.11zm-.304 11.448a24.03 24.03 0 01-.68 2.147h-46.42c-.258-.7-.484-1.415-.68-2.147h47.78zm-6.65 11.336a24.717 24.717 0 01-34.48 0h34.48z" fill="#03FFA1"/></svg>