<svg width="2679" height="2679" fill="none" xmlns="http://www.w3.org/2000/svg"><path fill-rule="evenodd" clip-rule="evenodd" d="M1806.11 406.956c-129.57 54.154-290.52 86.239-464.84 86.239S1006 461.11 876.382 406.909C785.701 548.2 731.264 731.169 731.264 931.15c0 293.4 177.251 628.49 355.216 824.45a1374.336 1374.336 0 01494.51-2.84c177.73-196.24 370.29-529.62 370.29-821.61 0-199.934-54.48-382.998-145.17-524.194zm-319.2 884.744c110.62 44.47 243.83-44.23 297.7-198.14 53.87-153.904 7.56-314.617-103.06-359.13-110.62-44.514-244.11 44.23-297.7 198.091-53.59 153.859-7.8 314.999 103.06 359.179zm-658.869-198.14c53.728 153.91 186.939 242.61 297.699 198.14 110.77-44.46 156.84-205.18 102.88-359.132-53.97-153.955-186.89-242.652-297.706-198.044-110.812 44.609-156.885 205.179-102.873 359.036zM1573.2 1192c34.78 13.94 72.72 8.93 107.45-10.64-46.4 44.75-105 62.9-156.79 42.06-83.16-33.08-117.66-153.96-77.3-269.351 36.95-105.85 123.99-170.589 202.24-154.995-60.01 9.451-119.12 63.935-147.05 143.984-37.24 106.602-5.39 218.082 71.45 248.942zm-390.7-69.94c-24.29 31.61-57.37 51.13-94.8 51.98-82.69 1.84-155.935-88.13-163.638-200.928-5.576-84.538 27.219-157.972 78.778-190.152-78.069 16.397-132.743 110.198-125.229 222.1 8.269 122.01 87.515 219.35 177.019 217.37 55.85-1.28 102.59-41.07 127.87-100.37zm559.68 867.07c0 15.12-18.24 19.57-30.15 10.59-76.36-56.71-213.68-94.51-370.76-94.51-157.07 0-294.44 37.8-370.52 94.51-12.145 8.98-30.385 4.72-30.385-10.59 0-100.46 179.565-181.93 400.905-181.93 221.34 0 400.91 81.47 400.91 181.93zm-400.91 343.54c221.48 0 400.91-81.46 400.91-181.93 0-100.46-179.57-181.93-400.91-181.93-221.34 0-400.905 81.42-400.905 181.93s179.565 181.93 400.905 181.93zm0-63.37c127.87 0 231.55-43.28 231.55-96.68 0-53.4-103.58-96.63-231.55-96.63-127.96 0-231.54 43.28-231.54 96.63 0 53.35 103.67 96.68 231.54 96.68zm0-36.57c79.25 0 143.7-20.51 143.7-45.84 0-25.33-64.45-45.79-143.7-45.79-79.24 0-143.46 20.51-143.46 45.79 0 25.28 64.22 45.84 143.46 45.84z" fill="#03FFA1"/></svg>