<svg width="124" height="124" fill="none" xmlns="http://www.w3.org/2000/svg"><path d="M61.715 47.015a1.906 1.906 0 01-1.903-1.903V17.9a1.906 1.906 0 011.903-1.9c1.141 0 1.902.761 1.902 1.9v27.402c0 .952-.951 1.713-1.902 1.713zm0 60.319a1.904 1.904 0 01-1.903-1.903V78.038a1.908 1.908 0 011.903-1.903c1.141 0 1.902.761 1.902 1.903v27.393a1.906 1.906 0 01-1.902 1.903zm43.747-43.766H78.073a1.9 1.9 0 01-1.967-1.902 1.902 1.902 0 011.967-1.902h27.389a1.905 1.905 0 011.816 1.159 1.915 1.915 0 010 1.486 1.915 1.915 0 01-1.068 1.033 1.905 1.905 0 01-.748.126zm-60.104 0H17.967A1.9 1.9 0 0116 61.666a1.904 1.904 0 011.967-1.902h27.39a1.904 1.904 0 011.9 1.903c-.187.952-.948 1.9-1.9 1.9zM38.51 65.28H27.668C29.38 81.264 42.116 94.005 58.1 95.726V84.69c-10.079-1.332-17.878-9.324-19.59-19.41zm26.82-37.675v11.037c10.081 1.531 17.88 9.515 19.592 19.41h11.033C94.05 42.067 81.305 29.318 65.33 27.605zM84.92 65.28c-1.53 10.086-9.51 17.887-19.592 19.6v11.037c15.978-1.713 28.723-14.462 30.434-30.446H84.921v-.19zm-57.253-7.23H38.7c1.53-10.084 9.51-17.886 19.59-19.408V27.605C42.116 29.319 29.38 42.067 27.668 58.05zm34.048 16.174a12.539 12.539 0 01-11.603-7.75 12.548 12.548 0 01-.952-4.809c0-6.85 5.707-12.559 12.555-12.559 3.33 0 6.522 1.323 8.877 3.678a12.561 12.561 0 01-8.877 21.44z" fill="#03FFA1"/></svg>