<svg width="223" height="197" fill="none" xmlns="http://www.w3.org/2000/svg"><path d="M156.164 1H65.927a21.365 21.365 0 00-18.659 10.956L4.693 88.273a21.366 21.366 0 00.047 20.903l42.515 75.404a21.365 21.365 0 0018.61 10.872h90.362c7.65 0 14.716-4.09 18.526-10.723l43.318-75.405a21.362 21.362 0 00.048-21.2L174.74 11.807A21.366 21.366 0 00156.164 1z" stroke="#03FFA1" stroke-width="2"/><path d="M153.626 6.25H67.508a19.824 19.824 0 00-17.314 10.168L9.555 89.278A19.825 19.825 0 009.6 108.67l40.581 71.99a19.824 19.824 0 0017.27 10.09h86.235a19.825 19.825 0 0017.19-9.951l41.348-71.992a19.826 19.826 0 00.045-19.668l-41.406-72.86A19.824 19.824 0 00153.626 6.25z" stroke="#028957" stroke-width="1.5"/></svg>