<svg width="32" height="32" fill="none" xmlns="http://www.w3.org/2000/svg"><path fill-rule="evenodd" clip-rule="evenodd" d="M16 0C7.163 0 0 7.163 0 16s7.163 16 16 16 16-7.163 16-16S24.837 0 16 0zM9.334 7.334c.211-.213.504-.334.804-.334a1.141 1.141 0 011.138 1.138c0 .3-.121.593-.333.806a1.146 1.146 0 01-.805.332c-.3 0-.593-.121-.804-.332a1.142 1.142 0 010-1.61zM9 11.96a1.138 1.138 0 112.276 0v9.41a1.138 1.138 0 11-2.276 0v-9.41zm9.47-.253a5.438 5.438 0 00-3.194 1.033v-.78a1.138 1.138 0 10-2.276 0v9.41a1.138 1.138 0 102.276 0v-4.193a3.197 3.197 0 013.194-3.194 3.197 3.197 0 013.193 3.194v4.447a1.138 1.138 0 002.276 0v-4.447a5.476 5.476 0 00-5.47-5.47z" fill="#03FFA1"/></svg>