<svg width="60" height="40" fill="none" xmlns="http://www.w3.org/2000/svg"><path d="M35.194 1.695c3.983.114 7.778.199 11.226.23 3.448.033 6.56.016 9.171-.06A96.674 96.674 0 0060 1.654V.088A56.814 56.814 0 0058.64 0H36.859l-1.664.046c-3.383.097-6.63.205-9.646.308-1.23.2-2.44.505-3.618.914l2.034.068c3.452.114 7.246.245 11.23.359zM11.48 2.872a584.12 584.12 0 01-6.522.144c-1.54.023-2.392.026-2.392.026s.852 0 2.392.023c1.539.024 3.767.071 6.521.147.838.021 1.726.047 2.656.075a11.5 11.5 0 01.643-.51c-1.166.035-2.27.067-3.299.095zm21.507 2.057c4.203.114 8.204.197 11.84.23 3.637.035 6.92.015 9.673-.06a124.59 124.59 0 003.23-.126v-1.74c-.972-.051-2.05-.093-3.23-.125a277.578 277.578 0 00-9.672-.06 665.5 665.5 0 00-11.841.23c-4.2.115-8.203.246-11.84.361-2.28.074-4.417.142-6.373.199-.22.166-.434.336-.643.511 2.127.062 4.484.138 7.015.218 3.645.117 7.646.248 11.84.362zM11.01 6.479c-2.86.075-5.174.123-6.775.146-1.6.023-2.483.024-2.483.024s.884 0 2.483.025c1.6.025 3.916.07 6.776.145l.549.015c.086-.128.175-.252.266-.377l-.815.022zm22.05 1.682c4.364.114 8.523.199 12.302.231 3.78.033 7.188.016 10.048-.06.82-.021 1.595-.048 2.324-.078V6.419c-.728-.031-1.503-.057-2.324-.077-2.86-.076-6.266-.094-10.048-.06-3.781.033-7.94.115-12.302.229-4.36.114-8.524.245-12.302.362-3.429.105-6.55.199-9.226.271-.091.125-.18.25-.266.378 2.743.072 5.955.17 9.498.279 3.766.115 7.93.246 12.296.36zM3.256 9.988c-1.63.025-2.531.025-2.531.025s.9 0 2.53.023c1.514.023 3.656.064 6.286.13.043-.104.087-.209.132-.307-2.691.057-4.878.1-6.417.13zm17.137 1.045l1.077.033a8.901 8.901 0 012.266-1.06l-3.347.1c-3.854.117-7.323.219-10.237.294l-.485.012-.132.308.615.018a2157 2157 0 0110.243.295zm-17.8 2.745C.924 13.803 0 13.803 0 13.803s.923 0 2.593.023c1.453.022 3.472.06 5.937.118.021-.095.046-.19.07-.286-2.498.06-4.54.099-6.007.12z" fill="#03FFA1"/><path d="M18.755 14.225c.142-.295.3-.582.474-.86-3.58.107-6.815.198-9.566.267l-1.065.027c-.023.095-.047.19-.069.286l1.134.028c2.63.066 5.7.152 9.092.252zM2.66 17.01c-1.67.025-2.594.025-2.594.025s.923 0 2.593.025c1.34.018 3.159.052 5.367.105l.026-.259c-2.22.053-4.049.086-5.393.105z" fill="#03FFA1"/><path d="M17.807 17.429c.042-.27.09-.533.143-.79-3.048.088-5.819.167-8.22.226l-1.678.041c-.01.087-.019.171-.027.26l1.704.04c2.365.06 5.087.135 8.078.223zM2.502 20.935C.892 20.958 0 20.96 0 20.96s.892 0 2.502.023c1.28.018 3.019.05 5.124.098v-.244c-2.105.047-3.843.08-5.124.098zm5.4-.793v.254l1.761.043c2.33.059 5.009.133 7.947.219v-.774c-2.941.085-5.62.155-7.952.22l-1.756.038zm-4.746 3.913c-1.583.023-2.46.024-2.46.024s.874 0 2.46.023c1.14.016 2.652.045 4.468.087v-.22c-1.814.04-3.324.069-4.468.086zm4.746-.662v.228l2.307.055c2.179.056 4.669.126 7.395.207v-.754c-2.726.08-5.216.154-7.395.207l-2.307.057zm-4.106 3.782c-1.538.023-2.398.025-2.398.025s.854 0 2.398.023c1 .014 2.294.038 3.83.074V27.1c-1.536.036-2.83.059-3.83.074zm4.106-.547v.204l2.805.069c2.042.052 4.366.12 6.903.197v-.735c-2.537.076-4.86.144-6.903.198-1.005.03-1.94.052-2.805.067zm-3.119 3.667c-1.485.023-2.306.025-2.306.025s.82 0 2.306.023c.77.01 1.73.029 2.842.053v-.153c-1.112.023-2.067.04-2.842.052zm20.987.283c2.315.073 4.736.146 7.227.214 4.203.114 8.204.197 11.84.23 3.637.035 6.92.016 9.673-.06a129.99 129.99 0 003.23-.124v-.26H25.77zm-17.868-.691v.162a987.04 987.04 0 019.708.27v-.703c-2.242.07-4.305.132-6.13.181-1.32.037-2.518.067-3.578.09zm-1.778 3.528c-1.409.023-2.188.025-2.188.025s.78 0 2.188.023c.44 0 .942.015 1.502.027v-.103l-1.502.028zm38.033-1.27a598.77 598.77 0 00-11.226.231c-3.98.114-7.778.245-11.226.36-3.447.116-6.56.22-9.17.295-1.794.051-3.352.09-4.625.116v.108c1.273.026 2.831.064 4.626.117 2.614.074 5.719.175 9.17.292 3.45.117 7.245.247 11.225.36 3.98.115 7.778.2 11.226.232 3.447.032 6.56.015 9.17-.06a96.914 96.914 0 004.41-.213v-1.565a96.573 96.573 0 00-4.41-.213c-2.61-.075-5.718-.094-9.17-.06zM6.146 36.56s.522 0 1.48.013v-.029c-.958.014-1.48.016-1.48.016zm45.784-1.122c-2.416-.074-5.29-.093-8.484-.06-3.194.032-6.703.117-10.387.231-3.685.114-7.197.245-10.39.36-3.192.116-6.068.22-8.483.295a826.6 826.6 0 01-5.72.154l-.564.01v.03h.563c1.352.025 3.306.07 5.72.154 2.415.083 5.29.177 8.484.293 3.194.115 6.703.248 10.39.362 3.686.114 7.195.197 10.387.23 3.193.035 6.068.015 8.484-.06 2.416-.073 4.369-.206 5.72-.378l.086-.013v-1.209l-.086-.012c-1.351-.182-3.306-.312-5.72-.387zm5.167 4.229c0-.228-.67-.444-1.884-.616-1.213-.173-2.969-.308-5.139-.378-2.17-.069-4.753-.094-7.62-.06a414.46 414.46 0 00-9.335.231c-3.31.116-6.459.244-9.333.36-2.874.118-5.453.22-7.622.294-2.17.074-3.926.123-5.138.154-1.212.03-1.885.024-1.885.024s.672 0 1.885.025 2.968.07 5.138.145c1.282.045 2.71.098 4.256.154h36.191c.319-.108.486-.219.486-.333z" fill="#03FFA1"/></svg>