<svg width="2678" height="2679" fill="none" xmlns="http://www.w3.org/2000/svg"><path d="M1292.4 366.128c-451.536 0-818.85 367.451-818.85 819.152a809.922 809.922 0 0085.735 363.86 30.182 30.182 0 0017.619 15.22l342.373 113.18v604.85a30.349 30.349 0 008.882 21.55 30.21 30.21 0 009.882 6.59 30.085 30.085 0 0011.656 2.29h161.083V1734.9c0-8.07 3.2-15.81 8.91-21.52 5.7-5.7 13.44-8.91 21.51-8.91 8.06 0 15.8 3.21 21.51 8.91 5.7 5.71 8.91 13.45 8.91 21.52v577.97h90.41v-684.43c0-8.07 3.2-15.81 8.91-21.52 5.7-5.71 13.44-8.91 21.51-8.91 8.07 0 15.8 3.2 21.51 8.91 5.7 5.71 8.91 13.45 8.91 21.52v684.43h91.26V1734.9c-.16-4.09.51-8.18 1.96-12.01 1.46-3.83 3.67-7.32 6.51-10.28a30.54 30.54 0 0110.01-6.91c3.77-1.6 7.82-2.43 11.92-2.43 4.09 0 8.15.83 11.91 2.43 3.77 1.61 7.18 3.96 10.02 6.91 2.84 2.96 5.05 6.45 6.5 10.28 1.46 3.83 2.13 7.92 1.96 12.01v577.97h160.28c4 .01 7.96-.76 11.66-2.29 3.69-1.52 7.05-3.77 9.88-6.59a30.55 30.55 0 006.59-9.89c1.52-3.7 2.3-7.66 2.29-11.66v-604.9l342.23-113.42a30.25 30.25 0 0010.35-5.84 30.23 30.23 0 007.32-9.37 809.843 809.843 0 0085.73-363.86c0-451.707-367.31-819.111-818.85-819.111v.189zm-214.64 787.492c-17.95 50.19-70.58 81.52-136.99 81.52a242.99 242.99 0 01-90.601-18.53c-99.103-39.97-155.787-129.76-128.815-204.75a29.9 29.9 0 0139.821-17.909l299.245 121.259c7.31 2.95 13.2 8.62 16.43 15.81a30.62 30.62 0 01.91 22.79v-.19zm153.52 312.4a30.863 30.863 0 01-30.09 25.52c-1.59-.05-3.18-.26-4.73-.61a30.22 30.22 0 01-11.17-4.12c-3.42-2.1-6.39-4.85-8.73-8.1a30.409 30.409 0 01-4.94-10.84c-.91-3.91-1.04-7.96-.38-11.91l30.42-182.55a30.55 30.55 0 0112.53-19.34 30.488 30.488 0 0122.48-5.06 30.48 30.48 0 0119.61 12.1 30.55 30.55 0 015.56 22.37l-30.56 182.54zm157.2 24.91c-1.55.35-3.13.56-4.72.61a30.528 30.528 0 01-19.71-7.25 30.538 30.538 0 01-10.38-18.27l-30.42-182.54c-1.33-7.99.57-16.18 5.28-22.77a30.463 30.463 0 0119.82-12.36 30.5 30.5 0 0122.76 5.28 30.484 30.484 0 0112.36 19.83l30.42 182.5a30.374 30.374 0 01-5.37 22.74c-2.34 3.25-5.31 6-8.73 8.1-3.41 2.1-7.21 3.5-11.17 4.13h-.14zm346.34-274.36a243.184 243.184 0 01-90.6 18.57c-66.6 0-119.22-31.38-136.99-81.56a30.67 30.67 0 01.8-22.7 30.605 30.605 0 0116.21-15.91l299.53-121.066a30.006 30.006 0 0123.79.374 30.03 30.03 0 019.83 7.132c2.76 3.03 4.87 6.58 6.2 10.45 27.07 74.85-29.52 164.87-128.63 204.71h-.14z" fill="#03FFA1"/></svg>