<svg width="2678" height="2679" fill="none" xmlns="http://www.w3.org/2000/svg"><path d="M1348.71 1421.56c29.38 0 58.1-8.72 82.53-25.05a148.64 148.64 0 0054.72-66.7 148.692 148.692 0 008.45-85.86 148.63 148.63 0 00-40.66-76.1 148.562 148.562 0 00-76.06-40.67 148.512 148.512 0 00-85.83 8.46 148.62 148.62 0 00-66.68 54.74 148.668 148.668 0 00-25.03 82.56c.05 39.4 15.72 77.17 43.56 105.03a148.736 148.736 0 00105 43.59zm179.73 116.53a26.345 26.345 0 00-15.98-12.1 26.335 26.335 0 00-19.87 2.65 296.972 296.972 0 01-287.72 0 26.432 26.432 0 00-19.91-2.66 26.472 26.472 0 00-16.04 12.11l-305.855 523.72a26.756 26.756 0 00-2.74 20.13 26.254 26.254 0 004.55 9.29 26.16 26.16 0 007.779 6.82 952.52 952.52 0 00476.056 127.5c167.11 0 331.29-43.97 476.05-127.5a26.71 26.71 0 0012.33-16.11c.9-3.37 1.12-6.89.65-10.34-.48-3.46-1.63-6.78-3.39-9.79l-305.91-523.72zm305.34-1085.109a26.764 26.764 0 00-20.12-2.882 26.367 26.367 0 00-9.33 4.52 26.344 26.344 0 00-6.87 7.766L1491.6 985.823a26.485 26.485 0 00-2.8 19.847 26.465 26.465 0 0011.92 16.11A291.888 291.888 0 011642 1272.89c-.01 3.48.67 6.92 2 10.14a26.62 26.62 0 005.73 8.59c2.46 2.46 5.38 4.41 8.59 5.73 3.22 1.33 6.66 2.01 10.13 2.01h606.15c3.47 0 6.92-.68 10.13-2.01 3.21-1.32 6.13-3.27 8.59-5.73a26.62 26.62 0 005.73-8.59c1.33-3.22 2.01-6.66 2-10.14a958.364 958.364 0 00-125.69-471.496 957.932 957.932 0 00-341.53-348.413h-.05zm-778.37 819.959a291.893 291.893 0 0137.51-144.21 291.731 291.731 0 01103.78-106.9 26.44 26.44 0 0011.91-16.11c1.71-6.73.7-13.857-2.79-19.849L899.91 462.385a26.402 26.402 0 00-36.325-9.451 957.863 957.863 0 00-341.521 348.439 958.324 958.324 0 00-125.652 471.517c0 7.02 2.787 13.75 7.748 18.72a26.456 26.456 0 0018.704 7.75h606.096c7.02 0 13.74-2.79 18.71-7.75 4.96-4.97 7.74-11.7 7.74-18.72v.05zm1264.16 302.57h-591.74c-10.9 0-21.35-4.33-29.06-12.04a41.116 41.116 0 010-58.14 41.092 41.092 0 0129.06-12.04h591.74c10.9 0 21.35 4.33 29.06 12.04a41.148 41.148 0 0112.03 29.07c0 10.9-4.33 21.36-12.03 29.07a41.092 41.092 0 01-29.06 12.04zm-1298.59 0H429.241a41.086 41.086 0 01-29.059-12.04 41.125 41.125 0 010-58.14 41.086 41.086 0 0129.059-12.04h591.739c10.89.02 21.33 4.36 29.03 12.07 7.7 7.7 12.04 18.14 12.06 29.04-3.96 20.56-20.54 41.11-41.09 41.11z" fill="#03FFA1"/></svg>