<svg width="46" height="46" viewBox="0 0 46 46" fill="none" xmlns="http://www.w3.org/2000/svg">
<path d="M38.1143 8.6462L37.8668 8.39792C36.222 6.75343 33.9913 5.82959 31.6654 5.82959C29.3395 5.82959 27.1088 6.75343 25.464 8.39792L17.918 15.9438C17.6669 16.1942 17.471 16.4944 17.3428 16.825C17.6389 16.7166 17.9502 16.655 18.2653 16.6424C18.3149 16.5759 18.3691 16.513 18.4276 16.4542L25.9735 8.91234C27.4829 7.40336 29.5299 6.55566 31.6642 6.55566C33.7985 6.55566 35.8454 7.40336 37.3549 8.91234L37.6023 9.15575C39.1096 10.6662 39.9561 12.713 39.9561 14.8468C39.9561 16.9807 39.1096 19.0274 37.6023 20.5379L30.0613 28.0838C29.9985 28.1457 29.9312 28.2029 29.8601 28.255C29.8441 28.5723 29.7778 28.8851 29.6637 29.1816C30.0049 29.0534 30.3145 28.8533 30.5716 28.595L38.1176 21.0531C39.7597 19.4069 40.6819 17.1765 40.6819 14.8513C40.6819 12.526 39.7597 10.2957 38.1176 8.64945L38.1143 8.6462Z" fill="#03FFA1"/>
<path d="M39.0324 12.3883C39.1674 13.5839 39.0311 14.7946 38.6336 15.9303C38.236 17.0659 37.5874 18.0973 36.7361 18.9476L31.1416 24.5413C31.2929 24.971 31.3876 25.4186 31.4232 25.8728C31.5213 25.8038 32.3384 25.007 32.426 24.9194L37.012 20.3326C38.0327 19.3129 38.7592 18.0366 39.1148 16.6383C39.4704 15.2401 39.4419 13.7717 39.0324 12.3883Z" fill="#03FFA1"/>
<path d="M29.3595 25.833C28.5441 23.8654 26.7753 21.583 24.6308 19.7168C22.3727 17.7565 20.1195 16.6335 18.4521 16.6335C18.3896 16.6335 18.3304 16.6384 18.2695 16.6417C17.9543 16.6538 17.643 16.7154 17.3469 16.8242C17.0056 16.9524 16.6959 17.1528 16.439 17.4117L8.8931 24.9527C7.25059 26.5986 6.32813 28.8289 6.32812 31.1541C6.32813 33.4794 7.25059 35.7097 8.8931 37.3556L9.13651 37.6038C10.7816 39.2482 13.0124 40.1719 15.3384 40.1719C17.6643 40.1719 19.8951 39.2482 21.5402 37.6038L29.082 30.0579C29.3327 29.8073 29.5283 29.5072 29.6565 29.1768C29.7728 28.8815 29.841 28.5695 29.8585 28.2526C29.8975 27.5483 29.7312 26.7361 29.3579 25.833H29.3595ZM27.5867 29.7464L20.8335 36.4995C19.8137 37.5203 18.5372 38.2467 17.1387 38.6022C15.7403 38.9577 14.2718 38.929 12.8884 38.5191C14.0841 38.6542 15.2949 38.5179 16.4307 38.1203C17.5665 37.7228 18.598 37.0742 19.4484 36.2229L28.1733 27.4948C28.3112 28.3946 28.1498 29.1792 27.5826 29.7464H27.5867Z" fill="#03FFA1"/>
</svg>
