<svg width="46" height="46" viewBox="0 0 46 46" fill="none" xmlns="http://www.w3.org/2000/svg">
<path d="M33.8136 25.369C33.8569 25.2078 33.8822 25.0424 33.8891 24.8756L37.0803 23.0549L33.8891 21.2341C33.8518 21.0443 33.8136 20.8925 33.7755 20.7027L37.2644 14.6708H30.2865C30.1553 14.5477 30.016 14.4336 29.8695 14.3292V10.6496L26.6831 12.5085C26.5314 12.4322 26.3415 12.3949 26.1898 12.3186L22.7731 6.2478L19.2841 12.2797C19.1116 12.3196 18.9455 12.3835 18.7908 12.4695L15.6028 10.6114V14.2911C15.4511 14.4047 15.3375 14.5191 15.1858 14.6327H8.20784L11.6968 20.6645C11.6595 20.8163 11.6214 21.0061 11.5832 21.1579L11.0899 21.4613L8.43422 23.0168L11.6214 24.8756C11.6587 25.0274 11.6587 25.2172 11.6968 25.369L10.0278 28.29L8.20703 31.4381H15.185C15.2986 31.5526 15.4511 31.6662 15.5647 31.7797V35.4578L18.2204 33.9015L18.7137 33.5981C18.859 33.6661 19.0118 33.717 19.1689 33.7498L20.8728 36.6708L22.6944 39.819L26.2255 33.7538C26.3772 33.7165 26.529 33.6403 26.6807 33.6021L27.174 33.9056L29.8297 35.4578V31.7806C29.9433 31.667 30.095 31.5534 30.2086 31.439H37.1866L35.365 28.2908L33.8136 25.369ZM30.8163 18.0851C30.8163 18.0851 31.1571 25.7122 23.608 21.5741L30.8163 18.0851ZM14.7306 18.0851L21.939 21.5741C14.3931 25.7122 14.7306 18.0851 14.7306 18.0851V18.0851ZM26.8706 29.0867C26.6807 28.707 26.3026 28.29 25.6186 27.9865C25.6186 27.9865 26.1866 29.6563 25.6186 29.8081C24.7237 30.2568 23.7364 30.4904 22.7353 30.4904C21.7342 30.4904 20.747 30.2568 19.8521 29.8081C19.2841 29.6563 19.8521 27.9865 19.8521 27.9865C19.1697 28.2908 18.79 28.7078 18.6001 29.0867C15.8308 27.0761 14.2373 23.6999 14.2373 23.6999C14.9959 24.3069 15.9071 24.7239 16.8929 25.0274C16.9311 25.4071 17.2345 26.6209 18.8662 27.3804C18.8662 27.3804 18.4484 26.1284 18.5628 25.4079C19.9436 25.6141 21.3419 25.6777 22.7357 25.5978C24.1293 25.7004 25.5302 25.6367 26.9087 25.4079C27.0231 26.1284 26.6052 27.3804 26.6052 27.3804C28.2369 26.6599 28.5023 25.4079 28.5785 25.0274C29.5271 24.7239 30.4374 24.3069 31.2342 23.6999C31.2342 23.6999 29.6398 27.0761 26.8706 29.0867V29.0867Z" fill="#03FFA1"/>
</svg>
