<svg width="46" height="46" viewBox="0 0 46 46" fill="none" xmlns="http://www.w3.org/2000/svg">
<path d="M14.3949 26.857C14.5913 26.857 14.782 26.8335 14.9759 26.8221C14.9783 26.8279 14.981 26.8336 14.984 26.8391C15.0478 26.9791 15.121 27.1147 15.2031 27.2448C12.7689 30.9521 13.1746 36.003 16.4031 39.2534C16.5451 39.3853 16.7325 39.4573 16.9263 39.4546C17.1201 39.4518 17.3053 39.3744 17.4435 39.2386C17.5817 39.1027 17.6622 38.9187 17.6682 38.725C17.6742 38.5313 17.6053 38.3428 17.4758 38.1986C14.9086 35.6021 14.4631 31.6596 16.1467 28.595C16.9969 29.6016 18.0573 30.4099 19.2533 30.9629C20.4493 31.5159 21.7519 31.8002 23.0695 31.7959C24.3872 31.7915 25.6879 31.4986 26.8802 30.9378C28.0726 30.377 29.1276 29.5618 29.9712 28.5495C30.8272 30.0815 31.164 31.8495 30.9313 33.5889C30.6986 35.3283 29.9089 36.9455 28.6802 38.1986C28.5496 38.3435 28.48 38.5334 28.4862 38.7284C28.4924 38.9234 28.5738 39.1085 28.7134 39.2449C28.853 39.3812 29.04 39.4583 29.2351 39.4599C29.4302 39.4614 29.6184 39.3874 29.7602 39.2534C32.9847 35.9843 33.3693 30.888 30.9083 27.1807C30.9765 27.0679 31.0365 26.947 31.0966 26.8262C31.3156 26.8408 31.542 26.8489 31.7611 26.8489C36.9637 26.8489 41.1991 22.5753 41.1991 17.3126C41.2025 17.2114 41.1854 17.1105 41.1489 17.016C41.1125 16.9215 41.0574 16.8353 40.987 16.7625C40.9165 16.6898 40.8322 16.6319 40.7389 16.5924C40.6457 16.5528 40.5454 16.5325 40.4441 16.5325C40.3429 16.5325 40.2426 16.5528 40.1494 16.5924C40.0561 16.6319 39.9718 16.6898 39.9013 16.7625C39.8309 16.8353 39.7758 16.9215 39.7394 17.016C39.7029 17.1105 39.6858 17.2114 39.6892 17.3126C39.6892 21.7371 36.1328 25.3389 31.7611 25.3389H31.6856C31.9386 24.5039 32.0657 23.636 32.0629 22.7635C32.0602 20.6416 31.3107 18.5883 29.9458 16.9635C28.581 15.3387 26.6878 14.2461 24.5982 13.8772C25.8663 11.1591 28.6072 9.27907 31.7635 9.27907C31.9595 9.27265 32.1453 9.19029 32.2816 9.0494C32.4179 8.90851 32.4942 8.72013 32.4942 8.52408C32.4942 8.32802 32.4179 8.13964 32.2816 7.99875C32.1453 7.85786 31.9595 7.7755 31.7635 7.76908C27.8753 7.76908 24.5227 10.1627 23.0817 13.5754C21.6406 10.1675 18.2945 7.76746 14.3998 7.76746C14.2039 7.77388 14.0181 7.85624 13.8817 7.99713C13.7454 8.13802 13.6692 8.32639 13.6692 8.52245C13.6692 8.71851 13.7454 8.90689 13.8817 9.04778C14.0181 9.18867 14.2039 9.27102 14.3998 9.27745C17.5553 9.27745 20.2767 11.1599 21.5522 13.8699C19.4474 14.2219 17.5354 15.3084 16.1556 16.9364C14.7758 18.5644 14.0174 20.6287 14.0152 22.7627C14.0124 23.6349 14.1396 24.5026 14.3925 25.3373V25.3373C10.024 25.3332 6.47174 21.7339 6.47174 17.3102C6.47174 17.1098 6.39216 16.9177 6.25049 16.776C6.10883 16.6344 5.91669 16.5548 5.71634 16.5548C5.516 16.5548 5.32386 16.6344 5.18219 16.776C5.04053 16.9177 4.96094 17.1098 4.96094 17.3102C4.95688 22.5777 9.19071 26.857 14.3949 26.857ZM23.0435 30.2892C21.8816 30.2896 20.7354 30.0205 19.6951 29.5029C18.6548 28.9854 17.7487 28.2335 17.0482 27.3065C17.1772 27.1402 17.3281 26.9819 17.4782 26.8197C17.8783 26.4202 18.3188 26.0634 18.7927 25.7551C18.8116 25.7474 18.8294 25.7371 18.8454 25.7243C18.8473 25.7243 18.8492 25.7235 18.8506 25.7221C18.8519 25.7208 18.8527 25.7189 18.8527 25.717C18.9095 25.6813 18.9663 25.6513 19.0215 25.6172C19.144 25.5466 19.2649 25.4792 19.3858 25.4038C19.4169 25.3899 19.4468 25.3733 19.475 25.3543H19.4807C19.7228 25.23 19.972 25.1202 20.2272 25.0257C20.5923 25.4186 21.0345 25.732 21.5262 25.9463C22.0179 26.1606 22.5485 26.2712 23.0849 26.2712C23.6213 26.2712 24.1519 26.1606 24.6436 25.9463C25.1353 25.732 25.5775 25.4186 25.9426 25.0257C26.2121 25.1293 26.4745 25.2504 26.728 25.3884C26.7353 25.3957 26.7508 25.3957 26.7654 25.403C26.9617 25.5312 27.1508 25.6367 27.3471 25.7429C27.3626 25.7503 27.3853 25.7657 27.3999 25.773C27.8613 26.0816 28.2913 26.4349 28.6835 26.8278C28.8198 26.9633 28.948 27.1069 29.0689 27.2505C28.3725 28.1933 27.4645 28.9593 26.418 29.4871C25.3714 30.0149 24.2156 30.2896 23.0435 30.2892V30.2892ZM30.5562 22.7692C30.5592 23.5887 30.424 24.4029 30.1562 25.1774C29.4653 25.0357 28.7972 24.7995 28.1707 24.4756C28.1496 24.4601 28.1267 24.4473 28.1025 24.4374C27.9023 24.3001 27.6931 24.1765 27.4761 24.0674C27.4678 24.0597 27.4574 24.0546 27.4461 24.0528C27.227 23.9011 27.008 23.7429 26.797 23.566C26.9262 23.1684 26.9924 22.7531 26.9934 22.3351C26.9934 20.4632 25.6724 18.8697 23.9279 18.4997C23.8669 18.1075 23.8368 17.7111 23.8379 17.3142C23.8375 16.645 23.9193 15.9782 24.0813 15.3288C25.8763 15.5788 27.5204 16.4691 28.7108 17.8357C29.9013 19.2022 30.5578 20.9528 30.5594 22.7652L30.5562 22.7692ZM22.0699 15.3263C22.2376 15.9774 22.3237 16.6468 22.3263 17.3191C22.3238 17.7192 22.291 18.1184 22.2281 18.5135C21.3595 18.7088 20.5833 19.1941 20.0274 19.8895C19.4716 20.5849 19.1691 21.4489 19.17 22.3392C19.1715 22.7552 19.2375 23.1685 19.3655 23.5644C19.1481 23.7413 18.9306 23.9068 18.7164 24.0512C18.7164 24.0512 18.7164 24.0512 18.7107 24.0512L18.6807 24.0658C18.664 24.0735 18.6486 24.0839 18.6353 24.0966C18.6158 24.1088 18.5947 24.1194 18.5744 24.1323C18.4275 24.2135 18.2766 24.2946 18.1314 24.3896C18.1129 24.3982 18.0953 24.4085 18.0786 24.4204L18.0657 24.4293C17.3946 24.7827 16.6754 25.0359 15.9309 25.1807C15.6625 24.4042 15.5254 23.5884 15.5252 22.7668C15.5282 20.9438 16.1937 19.1841 17.3977 17.8153C18.6017 16.4465 20.2622 15.5619 22.0699 15.3263V15.3263Z" fill="#03FFA1"/>
</svg>
