<svg width="2679" height="2679" fill="none" xmlns="http://www.w3.org/2000/svg"><path d="M1976.99 1329.13v-54.49h147.38l62.62-62.61a80.354 80.354 0 0034.92 8.18c16.16.02 31.97-4.74 45.43-13.7a81.726 81.726 0 0030.15-36.64 81.65 81.65 0 004.71-47.22 81.728 81.728 0 00-22.33-41.87 81.681 81.681 0 00-89.05-17.77 81.663 81.663 0 00-36.69 30.09 81.65 81.65 0 00-13.78 45.4 80.842 80.842 0 005.95 30.29c.61 1.61 1.47 3.12 2.17 4.73l-46.64 46.73h-124.84v-54.48h-217.61v-108.69h-108.92V839.24h-54.44V714.158l46.69-46.641c1.56.709 3.12 1.56 4.72 2.174a81.465 81.465 0 0093.62-24.766 81.453 81.453 0 0017.84-47.756 81.432 81.432 0 00-14.03-49.008 81.506 81.506 0 00-40.42-31.07 81.464 81.464 0 00-50.97-.966 81.463 81.463 0 00-41.57 29.517 81.496 81.496 0 00-15.88 48.442 80.244 80.244 0 008.18 34.921l-62.66 62.565v147.434h-54.44v217.846h-54.48V839.004h-54.44V670.636a81.739 81.739 0 0043.25-35.685 81.775 81.775 0 0010.06-55.159 81.71 81.71 0 00-27.87-48.656 81.69 81.69 0 00-52.66-19.239 81.716 81.716 0 00-52.67 19.239 81.746 81.746 0 00-27.86 48.656 81.717 81.717 0 0010.06 55.159 81.739 81.739 0 0043.25 35.685v168.368h-54.48v217.846h-54.44V839.004h-54.44V691.57l-62.66-62.565a80.385 80.385 0 008.18-34.921 82.189 82.189 0 00-15.81-49.012 82.133 82.133 0 00-134.233 2.268 82.13 82.13 0 0047.233 125.664 82.115 82.115 0 0051.39-3.313c1.61-.661 3.12-1.465 4.73-2.221l46.73 46.688v124.846h-54.48v217.846H942.775v108.68H724.506v54.44H599.66l-46.782-46.5c.756-1.56 1.559-3.07 2.174-4.72a80.885 80.885 0 005.954-30.29 81.584 81.584 0 00-13.815-45.28 81.647 81.647 0 00-36.633-29.98 81.595 81.595 0 00-47.112-4.58 81.49 81.49 0 00-41.724 22.36 81.547 81.547 0 00-17.617 88.86 81.511 81.511 0 0030.041 36.58 81.533 81.533 0 0045.298 13.74 80.303 80.303 0 0034.969-8.18l62.565 62.62h147.434v54.48h218.032v54.44H724.506v54.43H556.091a81.73 81.73 0 00-35.692-43.23 81.708 81.708 0 00-55.156-10.05 81.687 81.687 0 00-48.648 27.87 81.68 81.68 0 00-19.234 52.66 81.72 81.72 0 0019.234 52.66 81.708 81.708 0 00139.496-25.42h168.415v54.44h218.033v54.48H724.506v54.44H577.072l-62.565 62.61a81.896 81.896 0 00-101.421 25.58 81.899 81.899 0 006.45 104.4 81.851 81.851 0 0049.572 25.18 81.879 81.879 0 0054.227-12.28 81.888 81.888 0 0031.811-99.64c-.614-1.61-1.417-3.12-2.174-4.73l46.688-46.73h124.846v54.48h218.033v108.92h108.681v217.89h54.54v124.76l-46.74 46.68c-1.56-.75-3.07-1.56-4.72-2.22a81.46 81.46 0 00-50.89-3.03 81.412 81.412 0 00-42.733 27.8 81.465 81.465 0 0036.614 127.83 81.433 81.433 0 0050.969.97 81.485 81.485 0 0041.57-29.52 81.486 81.486 0 0015.88-48.44 80.32 80.32 0 00-8.18-34.97l62.66-62.56v-147.3h54.44v-217.79h54.63v217.79h54.48v168.37a81.646 81.646 0 00-43.21 35.67 81.636 81.636 0 00-10.05 55.13 81.678 81.678 0 0027.85 48.62 81.687 81.687 0 0052.63 19.22c19.26 0 37.9-6.81 52.63-19.22a81.678 81.678 0 0027.85-48.62c3.26-18.99-.3-38.51-10.05-55.13a81.683 81.683 0 00-43.21-35.67v-168.37h54.44v-217.79h54.48v217.79h54.44v147.44l62.66 62.37a80.32 80.32 0 00-8.18 34.97 82.148 82.148 0 0015.81 49.02 82.22 82.22 0 0041.89 29.96 82.202 82.202 0 0051.49-.87 82.156 82.156 0 0040.85-31.36 82.217 82.217 0 0014.15-49.52c-.72-17.6-7.07-34.5-18.12-48.21a82.167 82.167 0 00-43.26-27.94 82.152 82.152 0 00-51.4 3.32c-1.65.66-3.16 1.46-4.72 2.22l-46.69-46.64v-124.76h54.44v-217.79h108.92v-108.92h217.37v-54.49h124.89l46.64 46.74c-.7 1.56-1.55 3.07-2.17 4.72a80.21 80.21 0 00-5.95 30.25 82.36 82.36 0 0016.2 49.73 82.448 82.448 0 0042.89 29.94 82.356 82.356 0 0052.27-1.92 82.388 82.388 0 0040.57-33 82.353 82.353 0 0012.52-50.79 82.348 82.348 0 00-20.58-48.08 82.41 82.41 0 00-45.39-25.99 82.405 82.405 0 00-51.89 6.58l-62.57-62.61h-147.19v-54.44h-217.61v-54.49h217.61v-54.43h168.37a81.636 81.636 0 0035.69 43.23 81.692 81.692 0 00103.8-17.82 81.692 81.692 0 0019.24-52.66c0-19.27-6.82-37.92-19.24-52.66a81.708 81.708 0 00-103.8-17.81 81.636 81.636 0 00-35.69 43.23h-168.37v-54.44h-217.61v-54.43h217.61z" fill="#03FFA1"/></svg>