<svg width="46" height="46" viewBox="0 0 46 46" fill="none" xmlns="http://www.w3.org/2000/svg">
<path d="M26.1729 19.0401C26.2475 19.0953 26.3213 19.1521 26.3944 19.2089C26.4365 19.1999 26.4609 19.1935 26.4609 19.1935L26.4268 19.234C26.486 19.2795 26.5437 19.3257 26.6013 19.3728L26.7822 19.148C26.7502 19.0801 26.7065 19.0183 26.6532 18.9655L26.6337 18.989C26.4827 19.0245 26.328 19.0417 26.1729 19.0401Z" fill="#03FFA1"/>
<path d="M25.823 18.3651C25.6161 18.31 25.5163 18.3862 25.5163 18.3862L25.4043 18.5144L25.5958 18.6377C25.668 18.5525 25.7443 18.4617 25.823 18.3651Z" fill="#03FFA1"/>
<path d="M24.9795 19.9927C25.313 20.2524 25.8972 20.2516 25.8972 20.2516L26.6015 19.3728C26.5439 19.3258 26.4863 19.2795 26.4271 19.2341C26.0733 19.6503 25.8193 19.9213 25.8193 19.9213C25.8193 19.9213 25.4826 20.0195 25.2213 19.8597C25.1416 19.805 25.0746 19.7339 25.0249 19.651C24.9752 19.5681 24.9439 19.4754 24.9333 19.3793C24.9333 19.3793 25.0307 19.2787 25.1897 19.1018C25.1897 19.1018 25.6408 19.2008 25.8631 19.2268C26.0402 19.2473 26.2193 19.2412 26.3946 19.2089C26.3216 19.1522 26.2477 19.0954 26.1731 19.0402C26.1126 19.0402 26.0522 19.0367 25.9922 19.0296C25.7828 18.997 25.5754 18.9534 25.3706 18.899C25.4396 18.8179 25.5151 18.7367 25.5954 18.6377L25.4039 18.5144L24.6858 19.3388C24.6788 19.4633 24.7018 19.5878 24.7529 19.7016C24.804 19.8154 24.8817 19.9153 24.9795 19.9927Z" fill="#03FFA1"/>
<path d="M38.0982 14.4761L31.8035 11.9153L38.0779 9.30511L31.4806 10.9336L35.0223 5.13215L30.6408 10.3283L30.098 3.55481L29.6071 10.3315L25.185 5.17109L28.773 10.9441L22.1602 9.36759L28.4565 11.9283L22.1821 14.5402L28.7795 12.9117L29.1924 13.2225L29.6192 13.517L30.1612 20.2905L30.6538 13.5122L35.0742 18.6726L31.487 12.9004L38.0982 14.4761Z" fill="#03FFA1"/>
<path d="M27.1051 16.5849C26.9112 16.9014 26.6994 17.2105 26.4893 17.501C26.4893 17.501 27.0637 17.5756 27.3006 17.5716C27.4591 17.5654 27.6155 17.5339 27.7639 17.4783C27.837 17.3679 27.9076 17.2568 27.9749 17.1472C28.1866 16.8076 28.3714 16.452 28.5275 16.0835C28.3527 16.1412 28.1728 16.1822 27.9903 16.206V16.206C27.6715 16.2498 27.2731 16.2588 27.2731 16.2588C27.2239 16.3709 27.1678 16.4798 27.1051 16.5849V16.5849Z" fill="#03FFA1"/>
<path d="M28.0179 14.691C27.8476 15.0838 27.6423 15.5349 27.4297 15.9617C27.6892 15.9697 27.9489 15.9594 28.207 15.9308C28.3598 15.9057 28.5085 15.8601 28.6492 15.7953C28.7773 15.5825 28.8893 15.3604 28.9843 15.1308C29.1555 14.7584 29.2018 14.6586 29.2683 14.5004C29.1255 14.5638 28.9761 14.6112 28.8228 14.6415V14.6415C28.5576 14.691 28.2873 14.7076 28.0179 14.691V14.691Z" fill="#03FFA1"/>
<path d="M26.6531 18.9655C26.946 18.6101 27.2795 18.1857 27.5862 17.7484C27.4248 17.7923 27.2577 17.812 27.0905 17.8068C26.8292 17.8008 26.5684 17.7816 26.3091 17.7492C26.142 17.9715 25.9772 18.1793 25.8223 18.3683C25.9733 18.4147 26.1137 18.4905 26.2353 18.5914C26.3852 18.7037 26.525 18.8288 26.6531 18.9655Z" fill="#03FFA1"/>
<path d="M26.1734 19.0402C26.3285 19.0418 26.4833 19.0246 26.6343 18.9891L26.6538 18.9655C26.5258 18.8278 26.386 18.7015 26.2359 18.5882C26.1143 18.4874 25.9739 18.4115 25.8229 18.3651C25.7418 18.4617 25.6679 18.5525 25.5957 18.6377C25.7921 18.7665 25.9846 18.9006 26.1734 19.0402Z" fill="#03FFA1"/>
<path d="M25.3711 18.8989C25.5758 18.9533 25.7833 18.9969 25.9926 19.0296C26.0527 19.0366 26.1131 19.0401 26.1736 19.0401C25.9848 18.9011 25.7922 18.7658 25.5958 18.6344C25.5155 18.7326 25.4401 18.8243 25.3711 18.8989Z" fill="#03FFA1"/>
<path d="M26.3945 19.2089L26.427 19.2341L26.4611 19.1935C26.4611 19.1935 26.4367 19.2 26.3945 19.2089Z" fill="#03FFA1"/>
<path d="M25.8634 19.2301C25.6411 19.2041 25.19 19.1051 25.19 19.1051C25.0277 19.282 24.9328 19.3826 24.9336 19.3826C24.9442 19.4787 24.9755 19.5713 25.0252 19.6542C25.0749 19.7371 25.1419 19.8083 25.2216 19.8629C25.4829 20.0252 25.8196 19.9246 25.8196 19.9246C25.8196 19.9246 26.0736 19.6536 26.4274 19.2374L26.3949 19.2122C26.2196 19.2445 26.0405 19.2505 25.8634 19.2301V19.2301Z" fill="#03FFA1"/>
<path d="M26.6016 19.3728L25.8973 20.2515C25.8973 20.2515 25.3131 20.2515 24.9796 19.9927C24.8818 19.9152 24.8041 19.8153 24.753 19.7015C24.7018 19.5877 24.6788 19.4632 24.6859 19.3387L25.404 18.5143C22.6497 16.7758 19.3264 16.179 16.1393 16.8504C12.9522 17.5219 10.1522 19.4087 8.3334 22.1107C6.51461 24.8126 5.82021 28.1169 6.39756 31.3223C6.9749 34.5278 8.77856 37.3822 11.4258 39.2797C14.073 41.1772 17.3554 41.9686 20.5765 41.4858C23.7976 41.0031 26.7038 39.2842 28.6784 36.694C30.653 34.1038 31.5406 30.8461 31.1529 27.6122C30.7651 24.3783 29.1326 21.4228 26.6016 19.3728V19.3728ZM11.242 24.4967C11.0109 24.496 10.7852 24.4269 10.5933 24.298C10.4015 24.1692 10.2521 23.9864 10.1641 23.7727C10.0761 23.559 10.0534 23.324 10.0989 23.0974C10.1444 22.8708 10.256 22.6628 10.4197 22.4996C10.5833 22.3364 10.7916 22.2253 11.0184 22.1805C11.2451 22.1356 11.48 22.159 11.6935 22.2476C11.9069 22.3362 12.0893 22.486 12.2177 22.6782C12.346 22.8704 12.4145 23.0963 12.4145 23.3275C12.4145 23.4813 12.3841 23.6336 12.3252 23.7756C12.2662 23.9177 12.1798 24.0468 12.0709 24.1554C11.962 24.264 11.8327 24.35 11.6905 24.4086C11.5482 24.4672 11.3958 24.4971 11.242 24.4967V24.4967ZM16.3383 22.0852C14.9152 22.6102 13.5172 22.3725 13.2153 21.5546C12.9135 20.7367 13.8222 19.6478 15.2438 19.1204C16.6653 18.593 18.065 18.8332 18.3668 19.6511C18.6687 20.4689 17.7615 21.5603 16.3383 22.0852V22.0852Z" fill="#03FFA1"/>
</svg>
