<svg width="2679" height="2679" fill="none" xmlns="http://www.w3.org/2000/svg"><path d="M1885.88 979.208c-52.74-47.774-106.79-97.391-114.92-215.811h30.15a31.482 31.482 0 0022.16-9.218 31.48 31.48 0 009.21-22.159V543.427a31.462 31.462 0 00-9.2-22.19 31.461 31.461 0 00-22.17-9.234h-31.43v-31.425a94.462 94.462 0 00-27.68-66.544 94.502 94.502 0 00-66.54-27.681h-628.21a94.509 94.509 0 00-94.221 94.225v31.425h-31.566a31.472 31.472 0 00-31.377 31.424v188.451a31.471 31.471 0 0031.377 31.377h30.148c-8.127 118.42-62.186 168.037-114.923 215.811-50.751 46.354-103.534 94.034-103.534 192.844v1005.11c0 76.03 41.159 157.02 157.074 157.02h942.252c115.92 0 157.08-80.99 157.08-157.02V1171.91c0-98.62-52.79-146.49-103.68-192.513v-.189zm-869.91-498.44a31.572 31.572 0 019.23-22.193 31.533 31.533 0 0122.2-9.232h628.01a31.51 31.51 0 0122.19 9.232 31.487 31.487 0 019.23 22.193v31.377h-690.86v-31.377zm910.74 1696.062c0 43.05-16.35 94.22-94.23 94.22H890.181c-77.876 0-94.226-51.17-94.226-94.22v-31.48H1926.71v31.48zm-907.29-203.2l314.1-596.78c10.68-20.41 44.61-20.41 55.24 0l314.29 596.78c2.6 4.79 3.91 10.18 3.8 15.63-.1 5.45-1.62 10.78-4.41 15.47a31.95 31.95 0 01-11.57 11.03 31.812 31.812 0 01-15.46 4.04h-628.16a31.84 31.84 0 01-15.46-4.04 31.95 31.95 0 01-11.57-11.03 31.403 31.403 0 01-4.43-15.47 31.357 31.357 0 013.82-15.63h-.19zm907.29-739.06H795.955v-62.66c0-70.88 34.874-102.35 82.932-146.06 57.178-51.982 127.213-115.255 136.003-262.264h692.89c8.79 147.009 78.82 210.471 136 262.264 48.05 43.66 82.93 75.61 82.93 146.06v62.66z" fill="#03FFA1"/><path d="M1329.98 1611.38h62.8v188.54h-62.8v-188.54zm0 219.97h62.8v62.8h-62.8v-62.8z" fill="#03FFA1"/></svg>