<svg width="46" height="46" viewBox="0 0 46 46" fill="none" xmlns="http://www.w3.org/2000/svg">
<path fill-rule="evenodd" clip-rule="evenodd" d="M21.0955 9.3634H6.35742L13.3784 23.0572L14.9687 20.2287C14.9912 21.562 15.3504 22.8679 16.0129 24.0252C16.6754 25.1824 17.6196 26.1534 18.7579 26.848H15.32L22.8724 41.5804L30.4264 26.848H26.9975C28.1326 26.1565 29.0748 25.1899 29.737 24.0375C30.3992 22.8851 30.76 21.5843 30.7859 20.2555L32.3673 23.0596L39.3874 9.3634H24.6494L26.8401 13.2451C25.6325 12.5492 24.2628 12.184 22.8691 12.1862C21.4753 12.1885 20.1068 12.5582 18.9015 13.2581L21.0955 9.3634ZM21.42 17.9317L10.6578 12.8791L20.2679 19.5699C20.2218 19.7711 20.1984 19.9768 20.1981 20.1833C20.1976 20.7189 20.3582 21.2423 20.6588 21.6856C20.9594 22.1289 21.3864 22.4716 21.8841 22.6694L22.8805 34.4288L23.8793 22.6637C24.3715 22.4623 24.7926 22.1193 25.0894 21.678C25.3861 21.2368 25.545 20.7174 25.5459 20.1857C25.5465 19.9765 25.5212 19.768 25.4705 19.565L35.0449 12.8986L24.3175 17.9317C23.8854 17.6537 23.3825 17.5059 22.8688 17.5059C22.355 17.5059 21.8521 17.6537 21.42 17.9317V17.9317Z" fill="#03FFA1"/>
</svg>
