<svg width="18" height="18" fill="none" xmlns="http://www.w3.org/2000/svg"><path d="M8.508 2.556L8.18 2.18v5.311l.333.334V2.56a.04.04 0 01-.005-.004zM8.18 1.67v.333h1.64V1.67H8.18zm1.31.886a.04.04 0 01-.004.004v5.266l.333-.334v-5.31l-.328.374zm-1.31 7.952v5.31l.328-.374a.045.045 0 01.005-.004v-5.265l-.333.333zm1.306-.333v5.265a.045.045 0 01.005.004l.328.375v-5.311l-.333-.333zM8.18 15.997v.333h1.64v-.333H8.18z" fill="#03FFA1" fill-opacity=".5"/><path d="M8.18 2.003v.178l-.077-.088a.054.054 0 01.041-.09h.037zm1.718.09l-.078.088v-.178h.037a.054.054 0 01.04.09z" fill="#03FFA1" fill-opacity=".5"/><path d="M10.148 2.313l-.328.374-.079.089a.387.387 0 01-.255.13V2.56a.04.04 0 00.005-.004l.329-.375v-.178H8.18v.178l.329.375a.04.04 0 00.004.004v.346a.387.387 0 01-.255-.13l-.078-.09-.328-.373a.388.388 0 01.291-.643h1.713a.388.388 0 01.292.643zM8.18 15.819v.178h-.036a.055.055 0 01-.05-.032.054.054 0 01.01-.058l.077-.088zm1.677.178H9.82v-.178l.078.088a.054.054 0 01-.041.09z" fill="#03FFA1" fill-opacity=".5"/><path d="M10.21 16.103a.388.388 0 01-.354.227H8.144a.387.387 0 01-.292-.643l.328-.374.078-.089a.388.388 0 01.255-.13v.346a.038.038 0 00-.004.004l-.329.375v.178h1.64v-.178l-.329-.375a.037.037 0 00-.005-.004v-.346c.099.01.19.056.256.13l.078.09.328.373a.39.39 0 01.061.416zM1.67 8.18v1.64h.333V8.18H1.67zm5.822 0h-5.31l.374.329a.041.041 0 01.005.005h5.265l-.334-.334zM2.561 9.487a.041.041 0 01-.005.004l-.375.329h5.311l.334-.333H2.56zm7.947-1.307l-.333.334h5.265a.038.038 0 01.005-.005l.374-.329h-5.31zm4.937 1.311a.038.038 0 01-.005-.004h-5.265l.333.333h5.311l-.374-.329zm.552-1.31V9.82h.334V8.18h-.334z" fill="#03FFA1" fill-opacity=".5"/><path d="M15.996 8.143v.037h-.178l.088-.077a.054.054 0 01.09.04zm0 1.677v.036a.055.055 0 01-.031.05.054.054 0 01-.059-.009l-.088-.077h.178z" fill="#03FFA1" fill-opacity=".5"/><path d="M16.33 8.144v1.713a.388.388 0 01-.643.29l-.374-.327-.089-.078a.387.387 0 01-.13-.255h.345a.047.047 0 00.005.004l.374.329h.179V8.18h-.179l-.374.329a.046.046 0 00-.005.005h-.345a.388.388 0 01.13-.256l.09-.078.373-.328a.388.388 0 01.643.292zM2.182 9.82l-.088.077a.054.054 0 01-.09-.04V9.82h.178zm0-1.64h-.178v-.037a.054.054 0 01.09-.04l.088.077z" fill="#03FFA1" fill-opacity=".5"/><path d="M2.56 9.486h.346a.387.387 0 01-.13.256l-.09.078-.373.328a.387.387 0 01-.643-.292V8.143a.388.388 0 01.643-.29l.374.327.089.078c.074.066.12.157.13.255h-.345a.041.041 0 00-.005-.004L2.18 8.18h-.178v1.64h.178l.375-.329a.041.041 0 00.005-.005zm11.044-5.778l.688.688-.688-.688zM4.79 13.897v.007l-.033.497.358-.357 3.398-3.398v-.472L4.79 13.897zm-1.082-.293l-.236-.236-.236.236 1.16 1.159.235-.236-.235-.235-.688-.688zm.394-.395l3.723-3.723h-.471l-3.399 3.398-.357.358.497-.033h.007zm9.501-9.972l-.236.236.236.235.688.688.236.236.236-.236-1.16-1.16zm.3 1.553h-.007l-3.722 3.723h.471l3.756-3.755-.498.032zm-1.02-.834L9.486 7.354v.471l3.723-3.723a.07.07 0 010-.006l.032-.497-.357.357z" fill="#03FFA1" fill-opacity=".5"/><path d="M13.368 3.473l-.126.126.008-.117a.054.054 0 01.092-.035l.026.026zm1.151 1.277l-.117.008.126-.126.026.026a.054.054 0 01-.035.092z" fill="#03FFA1" fill-opacity=".5"/><path d="M14.879 4.833a.389.389 0 01-.338.25l-.496.033-.118.008H13.9a.388.388 0 01-.247-.089l.244-.244h.007l.497-.032.126-.126-.235-.236-.688-.688-.236-.236-.126.126-.033.497a.07.07 0 000 .007l-.244.244a.387.387 0 01-.088-.273l.007-.118.033-.496a.387.387 0 01.66-.249l.026.026 1.16 1.16.026.025a.389.389 0 01.089.411zM3.6 13.242l-.127.126-.026-.026a.054.054 0 01.035-.092l.117-.008zm1.159 1.159l-.008.117a.055.055 0 01-.035.047.054.054 0 01-.057-.012l-.026-.026.126-.126z" fill="#03FFA1" fill-opacity=".5"/><path d="M5.123 13.926l-.007.118-.032.496a.388.388 0 01-.661.249l-1.185-1.185-.026-.026a.388.388 0 01.248-.661l.496-.033.118-.008a.388.388 0 01.273.089l-.244.244h-.007l-.497.033-.126.126.236.235.688.688.235.236.126-.126.033-.497v-.007l.244-.244a.388.388 0 01.088.273zm9.404-.558l-1.16 1.16.236.235 1.16-1.16-.236-.235zm-3.882-3.882h-.471l.333.334 3.146 3.145.244.244a.07.07 0 01.006 0l.498.033-3.756-3.756zm2.564 4.418v-.007l-.245-.244-3.145-3.145-.333-.334v.472L13.24 14.4l-.032-.497zM5.115 3.956L4.757 3.6l.033.497v.007l.244.244L8.18 7.492l.334.333v-.47l-3.399-3.4zM7.492 8.18L4.346 5.035l-.244-.245h-.007l-.497-.032 3.756 3.755h.47l-.332-.333zM4.396 3.237l-1.16 1.16.236.235.236-.236.688-.688.235-.235-.235-.236zm8.972 11.29l-.026.026a.055.055 0 01-.057.013.054.054 0 01-.035-.048l-.008-.116.126.125zm1.186-1.185l-.026.026-.126-.126.117.008a.055.055 0 01.047.034.054.054 0 01-.012.058z" fill="#03FFA1" fill-opacity=".5"/><path d="M14.788 13.578l-1.21 1.21a.387.387 0 01-.662-.248l-.033-.496-.007-.118a.39.39 0 01.088-.273l.245.244v.007l.032.497.126.126 1.16-1.16-.127-.125-.497-.033a.07.07 0 00-.007 0l-.244-.244a.388.388 0 01.273-.088l.118.007.497.033a.388.388 0 01.248.66zM3.599 4.758l-.117-.008a.054.054 0 01-.035-.092l.026-.026.126.126zm1.16-1.159l-.126-.126.026-.026a.054.054 0 01.092.035l.008.117z" fill="#03FFA1" fill-opacity=".5"/><path d="M5.035 4.347l-.244-.244v-.007l-.033-.497-.126-.126-.235.235-.688.688-.236.236.126.126.497.033h.007l.244.244a.387.387 0 01-.247.089h-.025l-.118-.008-.497-.033a.388.388 0 01-.249-.66l.026-.026L4.423 3.21a.388.388 0 01.66.249l.033.496.008.118a.388.388 0 01-.089.273z" fill="#03FFA1" fill-opacity=".5"/></svg>