<svg width="61" height="42" fill="none" xmlns="http://www.w3.org/2000/svg"><path d="M30.286 1.719c2.197.115 4.29.201 6.192.234 1.902.033 3.619.016 5.059-.061a29.26 29.26 0 002.432-.216V.09a17.296 17.296 0 00-.75-.089H31.204l-.918.047a529.45 529.45 0 00-5.321.312 7.89 7.89 0 00-1.996.927l1.122.069c1.904.115 3.997.248 6.195.364zM12.053 3.015c-2.891.078-5.231.128-6.847.152-1.617.024-2.511.028-2.511.028s.894 0 2.51.024c1.617.024 3.957.074 6.848.153.88.023 1.812.05 2.789.08.215-.185.44-.363.675-.537-1.224.037-2.383.071-3.464.1zm22.583 2.16c4.413.12 8.614.207 12.433.243 3.819.035 7.266.014 10.156-.063 1.236-.034 2.367-.078 3.391-.133V3.394c-1.02-.053-2.152-.097-3.39-.131-2.89-.078-6.333-.097-10.157-.063-3.823.034-8.023.123-12.433.243s-8.612.257-12.433.378c-2.392.078-4.637.149-6.69.209-.232.175-.456.352-.675.537 2.232.065 4.708.144 7.365.228 3.827.123 8.029.26 12.433.38zM11.562 6.802c-3.003.08-5.434.13-7.114.154-1.681.024-2.608.026-2.608.026s.928 0 2.608.025c1.679.026 4.11.075 7.114.152l.576.016c.09-.134.184-.264.28-.395l-.856.022zM52.36 8.305c1.418.104 2.769.182 3.997.212 1.228.03 2.334.014 3.264-.055.266-.02.517-.044.754-.072V6.704a15.656 15.656 0 00-.755-.071 33.512 33.512 0 00-3.263-.055 83.26 83.26 0 00-3.996.21c-1.417.105-2.769.226-3.996.333a351.97 351.97 0 01-2.997.25c-.03.114-.059.229-.087.346.892.067 1.935.156 3.086.256 1.223.107 2.576.227 3.994.332zM3.418 10.488c-1.711.026-2.657.026-2.657.026s.946 0 2.657.024c1.59.024 3.838.067 6.6.137.045-.11.092-.22.138-.323-2.825.06-5.121.105-6.738.136zm17.995 1.097l1.13.034a9.344 9.344 0 012.38-1.113l-3.514.105c-4.047.123-7.69.23-10.75.309l-.508.013-.139.323.646.018c3.066.081 6.71.185 10.755.31zM2.722 14.468C.97 14.494 0 14.494 0 14.494s.969 0 2.722.024c1.526.023 3.646.063 6.234.124.023-.1.049-.2.073-.3-2.622.063-4.766.103-6.307.126z" fill="#03FFA1"/><path d="M19.694 14.937c.148-.31.314-.611.497-.902-3.759.111-7.156.207-10.045.28l-1.117.027c-.024.1-.05.2-.073.3l1.19.03c2.761.07 5.986.16 9.548.265zM2.792 17.861c-1.752.026-2.722.026-2.722.026s.969 0 2.722.026c1.407.02 3.317.055 5.635.11.008-.092.018-.181.028-.271-2.332.054-4.252.09-5.663.11z" fill="#03FFA1"/><path d="M18.698 18.3c.044-.283.094-.56.15-.83-3.2.094-6.11.177-8.632.238l-1.762.044c-.01.09-.02.18-.027.271l1.789.043c2.483.063 5.341.142 8.482.234zM2.627 21.982c-1.69.024-2.627.026-2.627.026s.936 0 2.627.024c1.345.02 3.17.053 5.38.104v-.257c-2.21.05-4.035.084-5.38.103zm5.67-.832v.266l1.85.045c2.445.062 5.258.14 8.344.23v-.812c-3.09.089-5.902.162-8.35.23l-1.844.04zm-4.984 4.108c-1.661.024-2.583.026-2.583.026s.919 0 2.583.024c1.198.016 2.786.047 4.693.09v-.23c-1.906.042-3.491.072-4.693.09zm4.984-.695v.239l2.422.058c2.288.058 4.902.133 7.765.217v-.791c-2.863.084-5.477.162-7.765.217l-2.422.06zm-4.312 3.971c-1.614.024-2.517.026-2.517.026s.896 0 2.517.024c1.052.015 2.41.04 4.023.078v-.205a529.75 529.75 0 01-4.023.077zm4.312-.574v.213l2.945.073c2.145.055 4.584.126 7.249.207v-.772c-2.665.08-5.104.15-7.248.207-1.056.032-2.038.055-2.946.071zm-3.275 3.85c-1.56.024-2.422.025-2.422.025s.862 0 2.422.024c.807.012 1.816.031 2.984.057v-.161c-1.168.024-2.17.042-2.984.055zm22.036.298c2.432.076 4.973.153 7.59.224 4.412.12 8.613.207 12.432.242 3.819.036 7.266.017 10.156-.063 1.235-.034 2.367-.077 3.39-.13v-.273H27.059zm-18.761-.727v.17a1023.608 1023.608 0 0110.194.285v-.74a1250.384 1250.384 0 01-10.194.285zM6.43 35.085c-1.479.025-2.298.026-2.298.026s.819 0 2.298.025c.462 0 .99.016 1.578.028v-.108l-1.578.03zm39.935-1.332c-3.624.034-7.608.123-11.787.242-4.179.12-8.167.258-11.787.379-3.62.121-6.888.23-9.628.309-1.885.053-3.52.094-4.857.121v.113c1.337.028 2.972.068 4.857.123 2.745.078 6.005.185 9.628.308s7.608.259 11.787.378c4.178.12 8.167.209 11.787.243 3.62.034 6.888.016 9.63-.063 1.776-.05 3.334-.126 4.629-.223v-1.644a101.292 101.292 0 00-4.63-.223c-2.741-.08-6.004-.099-9.63-.063zM6.454 38.388s.548 0 1.554.014v-.03c-1.006.014-1.554.016-1.554.016zm48.072-1.178c-2.536-.078-5.554-.098-8.908-.064a533.87 533.87 0 00-10.907.243c-3.868.12-7.556.257-10.908.378-3.352.122-6.372.232-8.908.31-2.537.077-4.587.127-6.007.161l-.59.01v.032h.59c1.42.026 3.472.075 6.007.162 2.535.087 5.554.186 8.908.307 3.354.122 7.038.26 10.909.38 3.87.12 7.554.208 10.906.243 3.352.036 6.372.015 8.908-.063 2.537-.078 4.588-.217 6.007-.398l.09-.013v-1.27l-.09-.013c-1.42-.19-3.471-.326-6.007-.406zm5.426 4.44c0-.239-.704-.465-1.978-.647-1.274-.18-3.118-.323-5.396-.396-2.278-.073-4.99-.099-8.002-.063-3.011.036-6.325.121-9.801.243-3.476.121-6.782.255-9.8.378-3.017.123-5.725.23-8.003.308a635.9 635.9 0 01-5.395.161c-1.272.033-1.98.026-1.98.026s.706 0 1.98.026 3.117.075 5.395.152c1.346.047 2.846.104 4.47.162h38c.334-.113.51-.23.51-.35z" fill="#03FFA1"/></svg>