<svg width="56" height="56" fill="none" xmlns="http://www.w3.org/2000/svg"><path d="M46.242 10.737l-.296-.296a10.463 10.463 0 00-14.794 0l-9.002 9.001a3.047 3.047 0 00-.686 1.051c.354-.13.725-.203 1.1-.218.06-.079.125-.154.194-.224l9.001-8.996a9.601 9.601 0 0113.577 0l.295.29a9.61 9.61 0 010 13.577l-8.995 9.001a2.153 2.153 0 01-.24.204c-.02.379-.099.752-.235 1.106a3.034 3.034 0 001.083-.7l9.001-8.996a10.475 10.475 0 000-14.796l-.003-.004z" fill="#03FFA1"/><path d="M47.336 15.2a9.545 9.545 0 01-2.739 7.825l-6.673 6.673c.18.512.293 1.046.336 1.588.117-.083 1.091-1.033 1.196-1.138l5.47-5.47a9.56 9.56 0 002.41-9.477zM35.798 31.238c-.972-2.347-3.082-5.07-5.64-7.295-2.694-2.339-5.382-3.678-7.37-3.678-.075 0-.146.005-.218.01a3.59 3.59 0 00-1.1.217 3.023 3.023 0 00-1.084.7l-9 8.996a10.472 10.472 0 000 14.795l.29.296a10.465 10.465 0 0014.795 0l8.996-9.001c.3-.3.533-.657.686-1.051.138-.352.22-.725.24-1.103.047-.84-.151-1.809-.597-2.886h.002zm-2.114 4.668l-8.056 8.056a9.559 9.559 0 01-9.477 2.409 9.545 9.545 0 007.825-2.74l10.407-10.41c.165 1.073-.028 2.009-.704 2.685h.005z" fill="#03FFA1"/></svg>