<svg width="56" height="56" fill="none" xmlns="http://www.w3.org/2000/svg"><path fill-rule="evenodd" clip-rule="evenodd" d="M34.893 27.868c.9.688 1.689 1.51 2.339 2.436h-17.94a10.98 10.98 0 012.342-2.436h13.26zm.708-9.764l1.528 3.797-3.543-3.05.357-2.302 1.655 1.555h.003zm1.478-4.077l3.639 1.872-4.672.01-1.24-1.976 2.27.097.003-.003zm-2.585-3.087l2.96-2.826-1.523 4.417-2.27.522.833-2.113zm-3.115-.603l.524-4.059 1.597 4.39-1.437 1.84-.684-2.17zm-4.452 9.985l-.026-.212c-.24-4.071 3.173-5.727 6.644-6.299l.306 1.884c-2.38.392-5.189 1.355-5.044 4.259l.043.366h2.172v2.026h-5.524v-2.023h1.425l.004-.001zm-5.293 6.854v-2.952a1.3 1.3 0 011.296-1.297h10.663a1.301 1.301 0 011.297 1.297v2.952h-1.304v-2.4h-.837v2.4h-.633v-2.4h-.837v2.4h-.632v-2.4h-.837v2.4h-8.176zm-3.636 13.929h20.525c1.675 0 1.675 2.534 0 2.534H17.998c-1.675 0-1.675-2.534 0-2.534zm-1.064-5.017h22.652c1.676 0 1.676 2.534 0 2.534H16.94c-1.68 0-1.68-2.534-.005-2.534zm1.064-5.017h20.525c1.675 0 1.675 2.534 0 2.534H17.998c-1.675 0-1.675-2.534 0-2.534zm20.968 3.25c.07.329.123.663.16 1H17.394c.037-.337.091-.671.16-1 .146.033.295.05.444.05h20.525c.15 0 .298-.016.444-.05zm-.135 5.067c-.085.322-.186.64-.3.95H17.99c-.114-.31-.215-.627-.301-.95H38.83zm-2.942 5.016a10.937 10.937 0 01-15.258 0h15.258z" fill="#03FFA1"/></svg>