<svg width="246" height="60" fill="none" xmlns="http://www.w3.org/2000/svg"><g clip-path="url(#clip0_96_1215)"><path d="M93.514 23.373c2.527.643 4.476 1.885 5.846 3.726 1.371 1.842 2.056 4.261 2.056 7.26 0 3.897-1.178 6.98-3.533 9.25-2.356 2.227-5.59 3.34-9.7 3.34H72.25V3.138h14.454c3.898 0 6.96 1.028 9.187 3.084 2.227 2.012 3.34 4.71 3.34 8.094 0 2.184-.492 4.069-1.477 5.653-.985 1.542-2.398 2.677-4.24 3.405zm-16.446-1.542h10.215c4.582 0 6.873-2.505 6.873-7.516 0-2.27-.663-4.026-1.99-5.268-1.329-1.242-3.17-1.863-5.526-1.863h-9.572v14.647zM87.54 42.967c2.74 0 4.882-.771 6.424-2.313 1.585-1.542 2.377-3.64 2.377-6.296 0-2.655-.792-4.732-2.377-6.231-1.542-1.542-3.683-2.313-6.424-2.313H77.068v17.153H87.54zm35.475-27.11c2.87 0 5.439.685 7.709 2.056 2.27 1.37 4.047 3.276 5.332 5.717 1.285 2.441 1.927 5.225 1.927 8.352 0 3.083-.642 5.846-1.927 8.287-1.242 2.398-2.998 4.283-5.268 5.653-2.227 1.37-4.775 2.056-7.644 2.056-2.184 0-4.198-.471-6.039-1.414-1.799-.984-3.319-2.355-4.561-4.111v17.345h-4.369V16.885h4.369v4.432c1.242-1.713 2.762-3.04 4.561-3.983 1.799-.985 3.769-1.477 5.91-1.477zm.129 28.138c2.012 0 3.811-.514 5.396-1.542s2.826-2.441 3.726-4.24c.899-1.842 1.349-3.919 1.349-6.231 0-2.356-.45-4.454-1.349-6.296-.9-1.842-2.141-3.276-3.726-4.304-1.585-1.028-3.384-1.542-5.396-1.542-2.056 0-3.898.514-5.525 1.542-1.585 1.028-2.827 2.462-3.726 4.304-.9 1.841-1.349 3.919-1.349 6.231 0 2.313.449 4.39 1.349 6.232.899 1.841 2.141 3.276 3.726 4.304 1.627 1.028 3.469 1.542 5.525 1.542zm35.753-28.138c1.028 0 2.013.15 2.955.45v3.983c-.899-.429-1.884-.643-2.955-.643-1.841 0-3.554.514-5.139 1.542-1.585 1.028-2.87 2.527-3.855 4.497-.942 1.927-1.413 4.218-1.413 6.874v14.39h-4.368V16.885h4.368v6.038c1.156-2.226 2.613-3.961 4.369-5.203 1.798-1.242 3.811-1.863 6.038-1.863zm19.472 32.121c-2.869 0-5.439-.685-7.709-2.056-2.27-1.37-4.047-3.276-5.332-5.717-1.285-2.484-1.927-5.268-1.927-8.352 0-3.084.621-5.825 1.863-8.223 1.285-2.441 3.04-4.347 5.268-5.717 2.269-1.37 4.839-2.056 7.708-2.056 2.87 0 5.44.685 7.71 2.056 2.27 1.37 4.047 3.276 5.332 5.717 1.285 2.441 1.927 5.204 1.927 8.287 0 3.084-.642 5.846-1.927 8.288-1.242 2.44-2.999 4.347-5.268 5.717-2.227 1.37-4.775 2.056-7.645 2.056zm-.129-3.983c2.056 0 3.877-.514 5.461-1.542 1.628-1.028 2.891-2.463 3.79-4.304.9-1.842 1.349-3.919 1.349-6.232 0-2.312-.449-4.39-1.349-6.231-.899-1.842-2.162-3.276-3.79-4.304-1.584-1.028-3.405-1.542-5.461-1.542-2.012 0-3.811.514-5.396 1.542-1.584 1.028-2.826 2.462-3.726 4.304-.899 1.799-1.349 3.854-1.349 6.167 0 2.356.45 4.454 1.349 6.296.9 1.841 2.142 3.276 3.726 4.304 1.585 1.028 3.384 1.542 5.396 1.542zm22.758 2.955V20.868h-5.139v-3.983h5.139V6.927h4.368v9.958h6.939v3.983h-6.939V46.95h-4.368zm29.191 1.028c-2.869 0-5.439-.685-7.709-2.056-2.27-1.37-4.047-3.276-5.332-5.717-1.285-2.484-1.927-5.268-1.927-8.352 0-3.084.621-5.825 1.863-8.223 1.285-2.441 3.04-4.347 5.268-5.717 2.269-1.37 4.839-2.056 7.708-2.056 2.87 0 5.44.685 7.71 2.056 2.27 1.37 4.047 3.276 5.332 5.717 1.284 2.441 1.927 5.204 1.927 8.287 0 3.084-.643 5.846-1.927 8.288-1.242 2.44-2.999 4.347-5.268 5.717-2.227 1.37-4.775 2.056-7.645 2.056zm-.129-3.983c2.056 0 3.876-.514 5.461-1.542 1.628-1.028 2.891-2.463 3.79-4.304.9-1.842 1.349-3.919 1.349-6.232 0-2.312-.449-4.39-1.349-6.231-.899-1.842-2.162-3.276-3.79-4.304-1.585-1.028-3.405-1.542-5.461-1.542-2.012 0-3.811.514-5.396 1.542-1.584 1.028-2.826 2.462-3.726 4.304-.899 1.799-1.349 3.854-1.349 6.167 0 2.356.45 4.454 1.349 6.296.9 1.841 2.142 3.276 3.726 4.304 1.585 1.028 3.384 1.542 5.396 1.542zM1.411 7.825C-1.242 4.763.933 0 4.985 0h24.75c4.602 0 8.973 2.01 11.968 5.504L58.946 25.62 35.553 40.768a4.915 4.915 0 01-6.387-.907L1.411 7.825z" fill="#03FFA1"/><path d="M1.41 43.418c-2.653 3.062-.478 7.825 3.574 7.825h24.75c4.602 0 8.973-2.01 11.968-5.504l17.243-20.116-14.425-9.34c-7.2-4.663-16.734-3.308-22.351 3.175L1.41 43.418z" fill="#03FFA1"/><path fill-rule="evenodd" clip-rule="evenodd" d="M58.945 25.623l-14.323 9.394c-7.24 4.748-16.88 3.376-22.507-3.203l-5.296-6.191 5.296-6.192c5.628-6.58 15.268-7.95 22.507-3.203l14.323 9.395z" fill="#01B873"/></g><defs><clipPath id="clip0_96_1215"><path fill="#fff" transform="translate(.246)" d="M0 0h244.783v60H0z"/></clipPath></defs></svg>