<svg width="222" height="60" fill="none" xmlns="http://www.w3.org/2000/svg"><path d="M60.781 30c0 16.569-13.431 30-30 30-16.568 0-30-13.431-30-30 0-16.569 13.432-30 30-30 16.569 0 30 13.431 30 30z" fill="#03FFA1"/><path d="M35.085 56.013c9.299-2.898 12.396-8.469 15.502-14.716 3.105-6.248 1.542-3.358 4.462-12.771 2.336-7.531-2.385-14.288-5.038-16.725-1.65-1.584-6.44-5.172-12.407-6.848-5.967-1.676-14.918.084-19.121 2.074C16.368 8.154 8.856 9.25 6.037 20.274c-2 7.817-.852 13.064-.668 15.554.35 4.769 5.984 7.505 8.79 11.668 2.702 4 11.52 11.447 20.926 8.517z" fill="#01B873"/><path d="M30.473 57.3c9.22 0 11.327-3.525 14.013-6.822 4.884-5.995 7.803-6.123 12.454-14.217 3.248-5.652-.408-15.093-2.364-18.199-1.203-1.997-4.904-6.833-10.09-10.198S29.388 4.952 25.08 5.599c-2.194.446-9.81 1.14-13.024 7.486-3.76 7.427-3.761 11.873-3.761 13.4 0 1.953 3.928 10.126 5.67 14.92 1.679 4.61 7.182 15.896 16.508 15.896z" fill="#01B873"/><path d="M12.695 46.544c4.93 7.078 14.858 6.035 19.205 4.629 5.08-.954 3.4-.138 11.784-2.41 6.707-1.817 9.91-8.902 10.674-12.217.528-2.096 1.286-7.685.101-13.279-1.184-5.594-7.985-11.77-11.238-14.16-1.732-1.14-6.853-3.455-13.475-3.594-8.277-.174-11.233 5.69-11.296 6.334-.05.514-4.095 9.207-6.111 13.49-1.936 4.12-4.575 14.13.356 21.207z" fill="#01B873"/><path d="M22.181 53.298c7.102 4.381 15.492-.344 18.8-3.254 4.131-2.79 2.958-1.424 9.507-6.647 5.239-4.178 5.34-11.68 4.736-14.91-.343-2.057-1.83-7.299-5.04-11.8-3.211-4.502-11.622-7.369-15.425-8.24-1.976-.346-7.406-.436-13.325 1.977-7.4 3.015-7.56 9.311-7.56 9.935 0 1.228-.07 9.724-.201 14.29-.123 4.39 1.406 14.268 8.508 18.65z" fill="#02CC81"/><path d="M20.222 50.702c5.995 5.073 14.455 1.823 17.936-.436 4.23-2.033 2.949-.92 9.766-4.89 5.453-3.175 6.59-10.165 6.478-13.263-.032-1.969-.687-7.068-3.046-11.715-2.36-4.647-9.782-8.488-13.198-9.827-1.789-.597-6.826-1.433-12.666 0-7.3 1.791-8.509 7.649-8.412 8.23.077.464-1.418 9.068-2.176 13.312-.725 4.082-.677 13.516 5.318 18.589z" fill="#02CC81"/><path d="M80.215 14.174h14.959v5.775h-8.33v7.538h7.675v5.907h-7.675v11.33h-6.63v-30.55zm28.926 0h6.542v23.1c0 2.41-.77 4.334-2.311 5.774-1.512 1.41-3.766 2.116-6.76 2.116-2.966 0-5.219-.705-6.76-2.116-1.512-1.41-2.268-3.335-2.268-5.775V14.174h6.542v22.747c0 1.47.828 2.204 2.486 2.204 1.686 0 2.529-.735 2.529-2.204V14.174zm10.255 0h6.63V39.17h8.068v5.554h-14.698v-30.55zm16.43 7.23c0-2.352.8-4.174 2.399-5.467 1.628-1.322 4.07-1.983 7.326-1.983 2.152 0 3.984.205 5.495.617v6.083c-1.628-.5-3.241-.75-4.84-.75-1.57 0-2.588.192-3.053.574-.465.352-.698.881-.698 1.587v14.811c0 1.411 1.09 2.116 3.271 2.116 2.21 0 4.027-.22 5.452-.66v5.95c-1.57.441-3.475.662-5.714.662-3.256 0-5.684-.647-7.283-1.94-1.57-1.293-2.355-3.115-2.355-5.466V21.404zm24.95 12.299v11.02h-6.542V14.174h9.857c2.383 0 4.245.573 5.582 1.72 1.338 1.146 2.006 2.82 2.006 5.025v5.642c0 3.527-1.192 5.731-3.576 6.613l4.754 11.55h-7.196l-4.056-11.021h-.829zm0-13.886v8.64h2.573c.67 0 1.134-.147 1.397-.44.26-.295.392-.809.392-1.544v-4.981c0-.646-.145-1.088-.437-1.323-.29-.235-.741-.352-1.352-.352h-2.573zm25.836-5.643h6.542v23.1c0 2.41-.77 4.334-2.312 5.774-1.512 1.41-3.765 2.116-6.759 2.116-2.966 0-5.219-.705-6.761-2.116-1.511-1.41-2.267-3.335-2.267-5.775V14.174h6.541v22.747c0 1.47.829 2.204 2.487 2.204 1.685 0 2.529-.735 2.529-2.204V14.174zm34.634 0v30.55h-6.323V34.1c0-3.057.276-6.07.829-9.037l-4.188 11.902h-5.058l-4.187-11.902c.552 2.733.828 5.745.828 9.037v10.623h-6.28V14.174h6.717l5.452 15.605 5.45-15.605h6.76z" fill="#03FFA1"/></svg>