<svg width="258" height="60" fill="none" xmlns="http://www.w3.org/2000/svg"><g clip-path="url(#clip0_96_1263)" fill="#03FFA1"><path d="M29.48 20l-6 10h12l-6-10z"/><path fill-rule="evenodd" clip-rule="evenodd" d="M40.989 24.079L47.505 3l-8.54 5.243-8.872-2.98L40.99 24.08zm-19.17-5.317L11.134 37.7l-1.887-9.249L.48 23.6l21.34-4.837zm26.662 18.873l-6.984 6.27L41.714 54 26.892 37.757l21.588-.122zm60.345-32.329V0h5.688v5.306h-5.688zM97.452 23.992l1.909 5.189h6.388L94.725 1.873h-5.57L78.48 29.18h6.232l1.87-5.189h10.869zm-8.999-5.15l3.545-9.752 3.584 9.753h-7.129zm20.373-10.728v21.067h5.688V8.114h-5.688zm35.06-.507c2.182 0 3.967.78 5.356 2.341 1.39 1.56 2.085 3.563 2.085 6.008V29.18h-5.688V16.892c0-2.86-1.065-4.291-3.194-4.291-.831 0-1.552.201-2.162.604-.611.404-1.072.995-1.383 1.775-.312.78-.468 1.717-.468 2.81v11.39h-5.57V16.893c0-2.86-1.026-4.291-3.078-4.291-1.298 0-2.311.455-3.038 1.365-.727.91-1.091 2.185-1.091 3.823v11.392h-5.688V8.114h3.974l1.052 2.614a8.584 8.584 0 012.824-2.282 7.615 7.615 0 013.487-.839c1.324 0 2.519.3 3.583.898A6.402 6.402 0 01137.381 11c.259-.364.532-.695.818-.994.285-.3.597-.573.935-.82a8.907 8.907 0 011.051-.663 6.94 6.94 0 011.15-.488 9.7 9.7 0 011.246-.312 7.278 7.278 0 011.305-.117zm32.002 3.082c-2.091-2.106-4.72-3.16-7.889-3.16-2.623 0-4.869.832-6.739 2.497l-.974-1.912h-3.778v28.674h5.687v-8.739c1.714 1.17 3.649 1.756 5.804 1.756 3.143 0 5.766-1.06 7.869-3.18 2.104-2.12 3.156-4.778 3.156-7.977 0-3.2-1.045-5.852-3.136-7.959zm-12.485 12.094c1.09 1.092 2.46 1.638 4.11 1.638 1.649 0 3.019-.546 4.109-1.638 1.091-1.093 1.636-2.47 1.636-4.135 0-1.093-.246-2.081-.74-2.965a5.299 5.299 0 00-2.045-2.068c-.87-.494-1.85-.741-2.941-.741-1.091 0-2.078.247-2.961.741a5.137 5.137 0 00-2.045 2.068c-.48.884-.72 1.872-.72 2.965 0 1.664.532 3.043 1.597 4.135zm23.84 5.54c1.74.962 3.688 1.443 5.844 1.443 3.22 0 5.914-1.06 8.083-3.18 2.169-2.12 3.253-4.765 3.253-7.938 0-3.2-1.078-5.852-3.234-7.959-2.155-2.106-4.856-3.16-8.102-3.16-3.273 0-5.986 1.054-8.142 3.16-2.155 2.107-3.233 4.76-3.233 7.959 0 2.08.487 3.972 1.461 5.676.973 1.703 2.33 3.036 4.07 3.998zm5.844-3.902c1.636 0 2.973-.54 4.012-1.619 1.039-1.079 1.558-2.464 1.558-4.154s-.519-3.076-1.558-4.155c-1.039-1.08-2.383-1.62-4.032-1.62s-2.993.54-4.032 1.62c-1.038 1.08-1.558 2.464-1.558 4.155 0 .832.137 1.612.409 2.34.273.729.656 1.34 1.149 1.834a5.414 5.414 0 001.773 1.17c.688.286 1.448.43 2.279.43zM208.513 0v5.306h5.688V0h-5.688zm0 8.114h5.688v21.067h-5.688V8.114zm28.808 1.893c-1.39-1.6-3.279-2.4-5.668-2.4a9.86 9.86 0 00-2.085.215 9.197 9.197 0 00-3.544 1.6 7.082 7.082 0 00-1.344 1.306l-1.13-2.614h-3.896v21.067h5.688V18.1c0-1.118.188-2.093.565-2.925.376-.833.922-1.47 1.636-1.912.714-.442 1.552-.663 2.512-.663 2.442 0 3.662 1.573 3.662 4.72v11.86h5.688V16.424c0-2.679-.695-4.818-2.084-6.417zm17.588 14.102h2.571v5.072h-4.012c-1.533 0-2.864-.3-3.993-.898a6.085 6.085 0 01-2.591-2.594c-.597-1.131-.896-2.477-.896-4.038V12.68h-3.817v-1.21l8.336-8.855h1.052v5.5h5.804v4.565h-5.687v8.231c0 1.015.279 1.801.837 2.36.559.56 1.357.84 2.396.84zm.467 31.892V41.704h1.656V56h-1.656zM210.87 41.743v1.892h1.792v-1.892h-1.792zm-9.466.604c1.999 0 3.652.644 4.957 1.931 1.305 1.288 1.957 2.92 1.957 4.896 0 1.977-.652 3.609-1.957 4.896-1.305 1.288-2.958 1.931-4.957 1.931h-4.539V42.347h4.539zm-.059 12.055c1.533 0 2.786-.494 3.759-1.483.974-.988 1.461-2.236 1.461-3.745 0-1.001-.22-1.898-.662-2.692a4.764 4.764 0 00-1.85-1.862c-.792-.449-1.695-.673-2.708-.673h-2.785v10.455h2.785zm9.603 1.6V45.467h1.655V56h-1.655zm14.783-10.534h-1.11l-.273 1.639a5.03 5.03 0 00-1.782-1.376 5.322 5.322 0 00-2.288-.497c-.961 0-1.838.23-2.63.692a5.032 5.032 0 00-1.87 1.893 5.26 5.26 0 00-.681 2.643c0 1.47.496 2.704 1.49 3.706.993 1.001 2.223 1.502 3.691 1.502 1.545 0 2.817-.527 3.817-1.58v.643c0 1.158-.321 2.071-.964 2.741-.643.67-1.496 1.005-2.561 1.005-.779 0-1.471-.182-2.075-.547a2.868 2.868 0 01-1.256-1.521h-1.656c.286 1.118.867 1.996 1.744 2.633.876.637 1.957.956 3.243.956 1.597 0 2.857-.488 3.778-1.463.922-.975 1.383-2.315 1.383-4.018v-9.05zm-5.278 8.602a3.77 3.77 0 001.87-.468 3.364 3.364 0 001.305-1.287c.311-.546.467-1.164.467-1.853 0-1.054-.344-1.922-1.032-2.604-.688-.683-1.558-1.024-2.61-1.024-1.052 0-1.925.344-2.62 1.033-.695.69-1.042 1.554-1.042 2.595 0 1.027.347 1.885 1.042 2.574.695.69 1.568 1.034 2.62 1.034zm8.531-12.328v1.893h1.792v-1.892h-1.792zm.078 14.26V45.467h1.656V56h-1.656zm10.479-1.542h-1.149c-.468 0-.867-.084-1.198-.253a1.69 1.69 0 01-.75-.742c-.169-.325-.253-.728-.253-1.209V46.97h3.292v-1.502h-3.292v-2.224h-.253l-3.253 3.434v.292h1.85v5.345c0 1.144.325 2.045.974 2.701.649.657 1.539.985 2.669.985h1.363v-1.54zm11.18-8.992h1.325v10.533h-1.383l-.175-1.6a5.025 5.025 0 01-1.802 1.356 5.607 5.607 0 01-2.328.478c-1.545 0-2.837-.523-3.876-1.57-1.039-1.047-1.558-2.357-1.558-3.93 0-1.574.519-2.884 1.558-3.93 1.039-1.047 2.331-1.57 3.876-1.57.857 0 1.64.162 2.347.487.708.325 1.309.78 1.802 1.365l.214-1.619zm-4.226 9.168c-1.117 0-2.046-.37-2.786-1.112-.727-.754-1.09-1.684-1.09-2.79 0-1.105.366-2.031 1.1-2.779.734-.748 1.659-1.121 2.776-1.121 1.116 0 2.038.37 2.765 1.111.728.742 1.091 1.671 1.091 2.79 0 1.118-.363 2.048-1.091 2.79-.727.74-1.649 1.11-2.765 1.11z"/></g><defs><clipPath id="clip0_96_1263"><path fill="#fff" transform="translate(.48)" d="M0 0h257v60H0z"/></clipPath></defs></svg>