<svg width="254" height="60" fill="none" xmlns="http://www.w3.org/2000/svg"><g clip-path="url(#clip0_96_1250)" fill="#03FFA1"><path d="M20.976 20.268h-8.567a1.52 1.52 0 00-1.281.755l-4.283 7.502a1.554 1.554 0 000 1.542l4.283 7.498c.131.226.318.415.543.547a1.5 1.5 0 00.738.208h8.567a1.513 1.513 0 001.281-.755l4.283-7.498a1.555 1.555 0 000-1.542l-4.283-7.502a1.541 1.541 0 00-1.281-.755z"/><path d="M34.466.366a.73.73 0 00-1.266 0l-6.935 12.14a1.29 1.29 0 000 1.247l8.614 15.063a.912.912 0 010 .924l-8.715 15.22a.898.898 0 01-.779.476H8.168a1.205 1.205 0 00-1.083.614L.161 58.19a.745.745 0 00.268 1.01.695.695 0 00.39.099H31.95a3.268 3.268 0 001.648-.454c.5-.295.915-.718 1.202-1.226l15.233-26.675a3.317 3.317 0 000-3.328L34.466.366zm68.293 32.596a13.404 13.404 0 014.022-9.135 13.133 13.133 0 019.175-3.747c3.423 0 6.713 1.343 9.175 3.747a13.403 13.403 0 014.021 9.135 13.39 13.39 0 01-3.863 9.42 13.12 13.12 0 01-9.325 3.903 13.12 13.12 0 01-9.326-3.902 13.39 13.39 0 01-3.863-9.421h-.016zm20.673 0a7.743 7.743 0 00-2.077-5.506 7.585 7.585 0 00-5.322-2.41h-.077a7.333 7.333 0 00-2.843.542 7.398 7.398 0 00-2.42 1.6 7.472 7.472 0 00-1.627 2.416 7.555 7.555 0 00-.587 2.862v.358a7.75 7.75 0 002.078 5.504 7.592 7.592 0 005.32 2.41h.099a7.404 7.404 0 005.265-2.189 7.556 7.556 0 002.191-5.308v-.279z"/><path d="M102.759 32.962a13.404 13.404 0 014.022-9.135 13.133 13.133 0 019.175-3.747c3.423 0 6.713 1.343 9.175 3.747a13.403 13.403 0 014.021 9.135 13.39 13.39 0 01-3.863 9.42 13.12 13.12 0 01-9.325 3.903 13.12 13.12 0 01-9.326-3.902 13.39 13.39 0 01-3.863-9.421h-.016zm20.673 0a7.743 7.743 0 00-2.077-5.506 7.585 7.585 0 00-5.322-2.41h-.077a7.333 7.333 0 00-2.843.542 7.398 7.398 0 00-2.42 1.6 7.472 7.472 0 00-1.627 2.416 7.555 7.555 0 00-.587 2.862v.358a7.75 7.75 0 002.078 5.504 7.592 7.592 0 005.32 2.41h.099a7.404 7.404 0 005.265-2.189 7.556 7.556 0 002.191-5.308v-.279zM76.503 21.964c0-.45.177-.881.491-1.2a1.67 1.67 0 011.187-.496h8.006c7.788 0 13.173 5.468 13.142 12.526 0 7.08-5.428 12.52-13.24 12.49h-8.001a1.682 1.682 0 01-1.187-.508 1.717 1.717 0 01-.488-1.204l.09-21.608zm9.606 18.489a7.038 7.038 0 005.126-1.774 7.183 7.183 0 002.385-4.914 7.323 7.323 0 000-.787v-.126a7.258 7.258 0 00-.39-2.778 7.207 7.207 0 00-1.415-2.415 7.126 7.126 0 00-2.221-1.685 7.06 7.06 0 00-2.69-.698h-5.021v15.11l4.225.067zm47.263-17.55c0-.725.284-1.42.788-1.936a2.712 2.712 0 012.262-.798c.676.097 1.294.44 1.737.964a2.84 2.84 0 01.673 1.884v17.391h10.003a2.543 2.543 0 011.656.593c.466.389.78.931.887 1.532a2.53 2.53 0 01-.032.973c-.074.32-.209.62-.4.887a2.466 2.466 0 01-2.036 1.035h-13.875a1.667 1.667 0 01-1.55-1.043 1.714 1.714 0 01-.128-.649l.015-20.833zm22.2-.016c0-.73.287-1.43.799-1.947a2.71 2.71 0 011.927-.806c.723 0 1.416.29 1.928.806a2.77 2.77 0 01.798 1.947l-.078 20.024c0 .73-.288 1.43-.799 1.947a2.71 2.71 0 01-3.855 0 2.767 2.767 0 01-.797-1.947l.077-20.024zm17.106 2.557h-5.257a2.502 2.502 0 01-1.778-.744 2.554 2.554 0 01-.737-1.797c0-.674.265-1.32.737-1.797a2.502 2.502 0 011.778-.744h15.946a2.511 2.511 0 011.846.61 2.553 2.553 0 01.879 1.75 2.58 2.58 0 01-.603 1.866 2.534 2.534 0 01-1.733.887c-.129.008-.26.008-.389 0h-5.245v17.427c0 .73-.288 1.431-.799 1.947a2.71 2.71 0 01-1.927.807 2.71 2.71 0 01-1.928-.807 2.768 2.768 0 01-.798-1.947l.008-17.458zm22.994 0h-5.245a2.504 2.504 0 01-1.779-.744 2.558 2.558 0 010-3.594 2.504 2.504 0 011.779-.744h15.965a2.509 2.509 0 011.846.61 2.59 2.59 0 01.762 2.744 2.546 2.546 0 01-2.219 1.76 3.195 3.195 0 01-.389 0h-5.261v17.426c0 .73-.286 1.431-.798 1.947a2.713 2.713 0 01-1.928.807c-.722 0-1.415-.29-1.927-.807a2.768 2.768 0 01-.798-1.947l-.008-17.458zm17.214-2.572c0-.727.285-1.424.792-1.94a2.71 2.71 0 011.915-.814 2.47 2.47 0 01.342 0 2.78 2.78 0 011.745.968c.443.528.68 1.203.661 1.896v17.407h10.004c.603-.008 1.188.2 1.654.585.466.386.782.926.893 1.524a2.541 2.541 0 01-.437 1.87 2.477 2.477 0 01-2.009 1.04H214.56a1.695 1.695 0 01-1.195-.51 1.73 1.73 0 01-.494-1.212l.015-20.814zm21.877 20.817l.077-21.687c0-.446.176-.873.487-1.188a1.657 1.657 0 011.176-.492h14.703a2.514 2.514 0 011.71.627c.473.416.778.994.853 1.623a2.45 2.45 0 01-.551 1.777c-.41.494-.997.805-1.633.863h-11.332v5.102h9.345a2.537 2.537 0 011.706.632c.472.415.777.99.857 1.618a2.454 2.454 0 01-.54 1.782 2.407 2.407 0 01-1.63.874 2.031 2.031 0 01-.268 0h-9.485v5.267h11.101a2.532 2.532 0 011.704.632c.472.415.776.991.854 1.618a2.439 2.439 0 01-1.268 2.383c-.279.15-.585.242-.901.272a2.031 2.031 0 01-.268 0h-14.988a1.673 1.673 0 01-1.203-.487 1.698 1.698 0 01-.371-.551 1.704 1.704 0 01-.135-.653v-.012z"/><path d="M234.763 43.689l.077-21.687c0-.446.176-.873.487-1.188a1.657 1.657 0 011.176-.492h14.703a2.514 2.514 0 011.71.627c.473.416.778.994.853 1.623a2.45 2.45 0 01-.551 1.777c-.41.494-.997.805-1.633.863h-11.332v5.102h9.345a2.537 2.537 0 011.706.632c.472.415.777.99.857 1.618a2.454 2.454 0 01-.54 1.782 2.407 2.407 0 01-1.63.874 2.031 2.031 0 01-.268 0h-9.485v5.267h11.101a2.532 2.532 0 011.704.632c.472.415.776.991.854 1.618a2.439 2.439 0 01-1.268 2.383c-.279.15-.585.242-.901.272a2.031 2.031 0 01-.268 0h-14.988a1.673 1.673 0 01-1.203-.487 1.698 1.698 0 01-.371-.551 1.704 1.704 0 01-.135-.653v-.012z"/></g><defs><clipPath id="clip0_96_1250"><path fill="#fff" transform="translate(.063)" d="M0 0h253.846v60H0z"/></clipPath></defs></svg>