<svg width="162" height="64" fill="none" xmlns="http://www.w3.org/2000/svg"><g clip-path="url(#clip0_96_1185)"><g clip-path="url(#clip1_96_1185)" fill-rule="evenodd" clip-rule="evenodd" fill="#03FFA1"><path d="M58.657 40.36v-.012.011zm21.651-26.205c-4.125.027-4.524 1.964-4.524 4.819v24.512c0 3.977-1.5 5.513-3.352 5.513-2.402 0-3.352-3.209-3.352-5.06V15.54c0-.746-.592-1.372-1.337-1.384-1.658-.028-2.562 1.823-5.238 1.036-.32-.094-.648.105-.648.44v24.962c0 6.39 5.31 8.64 8.523 9.405 4.865 1.159 6.793-2.358 6.793-6.495V18.791c0-2.034.623-2.971 1.406-2.971.783 0 1.428 1.205 1.428 2.97v38.251a5.464 5.464 0 01-10.927 0v-3.12c-1.181-2.801-6.323-2.829-7.222-.001.004 5.509 3.31 9.973 11.7 9.973 9.684 0 13.671-6.12 13.671-13.67V21.272c0-3.355-1.727-7.15-6.921-7.117zm-60.941 0c-4.124.027-4.524 1.964-4.524 4.819v24.512c0 3.977-1.5 5.513-3.352 5.513-2.402 0-3.352-3.209-3.352-5.06V15.54c0-.746-.59-1.372-1.337-1.384-1.658-.028-2.561 1.823-5.238 1.036-.32-.094-.647.105-.647.44v24.962c0 6.39 5.309 8.64 8.522 9.405 4.865 1.159 6.793-2.358 6.793-6.495V18.791c0-2.034.624-2.971 1.406-2.971.783 0 1.428 1.205 1.428 2.97v38.251a5.464 5.464 0 01-10.927 0v-3.12C6.958 51.12 1.817 51.092.917 53.92c.004 5.509 3.31 9.973 11.701 9.973 9.683 0 13.67-6.12 13.67-13.67V21.272c0-3.355-1.726-7.15-6.921-7.117zm10.121 10.371v-.012.012zm79.688 11.808c3.246-.614 8.524-3.015 8.524-9.405v-.296c0-6.39-1.991-10.382-8.524-11.971-2.803-.683-6.166-.657-8.87-.032-5.422 1.252-7.979 7.37-7.979 13.355v8.567c0 7.55 3.987 13.67 13.67 13.67 8.392 0 11.697-4.463 11.702-9.973-.87-2.735-5.711-2.798-7.095-.264-.092.17-.128.366-.128.56v2.644c0 3.008-2.353 5.59-5.36 5.645a5.464 5.464 0 01-5.566-5.463V32.096s2.99 5.493 9.626 4.238zm-4.802-21.17c5.808 0 6.102 4.337 6.102 6.188V30.5c0 1.851-.907 4.811-3.305 4.939-5.529.293-7.621-6.632-7.621-6.632v-6.91c0-1.993.233-6.732 4.824-6.732zM39.91 27.099c-3.246.613-8.523 3.014-8.523 9.405v1.241c0 6.39 1.99 10.382 8.522 11.972 2.804.683 6.166.656 8.871.032 5.422-1.253 7.979-5.559 7.979-11.544V26.88c0-7.55-3.987-12.724-13.67-12.724-8.392 0-11.697 4.575-11.702 10.084.87 2.735 5.71 2.799 7.094.264.093-.17.128-.366.128-.56V21.3c0-3.009 2.354-5.7 5.361-5.755 3.065-.056 5.566 2.522 5.566 5.573v10.218s-2.99-5.492-9.627-4.237zm4.802 22.144c-5.809 0-6.103-4.365-6.103-6.217V32.975c0-1.852.907-4.811 3.307-4.939 5.528-.293 7.62 6.632 7.62 6.632v8.04c0 1.766-.233 6.535-4.824 6.535zm115.503-24.145c-.105-4.523-1.166-7.56-3.247-9.273-1.453-1.197-4.136-2.22-7.557-1.337-2.522.65-6.364 2.152-7.877 5.89-.528-2.016-1.408-3.525-2.657-4.553-1.453-1.197-4.136-2.22-7.557-1.337-3.198.826-8.523 3.015-8.523 9.405l.001 24.22c.9 2.828 6.041 2.8 7.222-.002V21.267c0-.931-.172-4.208 2.316-5.34 1.824-.83 4.578-.381 5.785.816 1.494 1.48 2.527 3.844 2.767 7.376l.001 23.994c.899 2.828 6.041 2.8 7.222-.002V21.267s-.273-4.127 2.316-5.34c1.815-.85 4.578-.381 5.785.816 1.653 1.638 2.745 4.353 2.819 8.542V49.72c0 .67 1.19.67 1.19 0V25.098h-.006z"/></g></g><defs><clipPath id="clip0_96_1185"><path fill="#fff" transform="translate(.46)" d="M0 0h161v64H0z"/></clipPath><clipPath id="clip1_96_1185"><path fill="#fff" transform="translate(.46 14)" d="M0 0h160.215v50H0z"/></clipPath></defs></svg>