<svg width="41" height="60" fill="none" xmlns="http://www.w3.org/2000/svg"><g clip-path="url(#clip0_96_1267)"><mask id="a" style="mask-type:alpha" maskUnits="userSpaceOnUse" x="0" y="0" width="121" height="60"><path d="M.48 0h120.192v59.793H.48V0z" fill="#fff"/></mask><g mask="url(#a)" fill-rule="evenodd" clip-rule="evenodd" fill="#03FFA1"><path d="M39.32 38.397c0 7.439-3.886 13.886-11.69 14.259l-3.883-11.229h.35c2.593 0 4.153-2.003 4.153-4.848 0-2.685-1.518-4.976-4.174-4.976l-3.728.004-3.88-11.226 7.228.003c2.214 0 3.732-1.976 3.732-4.583s-1.518-4.503-3.732-4.503h-10.37l-1.953-5.65L9.42 0h16.743c8.35 0 12.334 6.794 12.334 13.431 0 6.557-3.257 11.386-7.241 12.492 4.49.87 8.063 5.837 8.063 12.474zM8.685 46.889c-4.036-1.107-7.43-6.604-7.43-13.161 0-6.217 3.54-12.567 10.937-13.347l3.885 11.227c-2.147.095-3.611 1.95-3.611 4.49 0 2.607 1.596 5.333 3.838 5.333l2.967-.003 3.88 11.228-7.232-.006c-2.69 0-4.227 2.291-4.227 4.977 0 2.844 1.6 4.82 4.227 4.82h10.619l3.907 11.298H13.036C4.646 73.745.48 67.11.48 59.445c0-6.637 3.657-11.688 8.205-12.556z"/></g></g><defs><clipPath id="clip0_96_1267"><path fill="#fff" transform="translate(.48)" d="M0 0h40v60H0z"/></clipPath></defs></svg>