<svg width="255" height="60" fill="none" xmlns="http://www.w3.org/2000/svg"><g clip-path="url(#clip0_96_1239)" fill="#03FFA1"><path fill-rule="evenodd" clip-rule="evenodd" d="M55.708 34.093L29.835 59.966 14.897 45.03l40.811-10.936zm3.04-3.039l-.043.043-45.538 12.201L.923 31.054h57.824zM13.166 16.693l45.538 12.201.042.042H.923l12.244-12.243zM29.835.024l25.873 25.872-40.81-10.935L29.834.024zm40.947 18.639h-6.613v22.062h6.524v-2.253c.623.622 3.321 2.639 7.888 2.639h.504c7.087 0 9.964-3.855 9.964-8.155v-.563c0-4.36-2.521-8.007-9.757-8.007h-.614c-4.623 0-7.03 1.92-7.824 2.552l-.072.058v-8.333zm0 14.085v-.118c0-2.046 1.809-4.122 5.752-4.122h.178c4.3 0 5.575 2.076 5.575 4.122v.118c0 1.928-1.275 4.152-5.575 4.152h-.178c-3.884 0-5.752-2.165-5.752-4.151z"/><path d="M97.826 18.663v22.062h-6.613V18.663h6.613z"/><path fill-rule="evenodd" clip-rule="evenodd" d="M107.493 41.022c4.685 0 6.723-1.589 7.405-2.449v2.152h6.125v-5.083l.051-6.156c0-2.312-.593-5.16-9.845-5.16h-1.631c-8.896 0-9.518 3.292-9.518 5.398v.06h6.138l.004-.024c.09-.546.29-1.756 4.177-1.756h.148c3.885 0 4.152.712 4.152 1.305 0 .504-.267.741-1.008.83l-7.295.682c-4.774.445-6.702 1.839-6.702 4.774v.208c0 2.728 2.046 5.219 7.414 5.219h.385zm7.206-7.888v.504c0 1.898-2.284 3.796-5.812 3.796-2.254 0-2.906-.95-2.906-1.81v-.029c0-.919.711-1.216 2.402-1.483l6.316-.978zm99.394 7.888c4.685 0 6.724-1.589 7.405-2.449v2.152h6.126v-5.083l.051-6.155c0-2.313-.593-5.16-9.845-5.16h-1.631c-8.897 0-9.519 3.291-9.519 5.397v.06h6.139l.003-.024c.09-.546.289-1.756 4.178-1.756h.148c3.884 0 4.151.712 4.151 1.305 0 .504-.267.741-1.008.83l-7.295.682c-4.774.445-6.702 1.839-6.702 4.774v.208c0 2.728 2.047 5.219 7.414 5.219h.385zm7.206-7.888v.504c0 1.898-2.284 3.796-5.812 3.796-2.253 0-2.906-.95-2.906-1.81v-.029c0-.919.712-1.215 2.402-1.482l6.316-.979z"/><path d="M135.922 41.17h-1.631c-9.103 0-11.119-4.656-11.119-8.214v-.593c0-3.558 1.986-8.036 11.089-8.036h1.691c9.964 0 11.209 4.833 11.209 6.968v.09h-6.791c-.148-.623-.741-2.877-5.278-2.877h-.089c-3.854 0-5.071 1.928-5.071 3.944v.208c0 2.135 1.246 4.27 5.071 4.27h.089c4.478 0 5.13-2.313 5.278-2.936h6.791v.06c0 2.223-1.037 7.116-11.239 7.116zm19.809-.445h-6.613V18.663h6.613v12.484l6.465-6.375h7.324l-7.532 7.206 8.451 8.747h-7.769l-6.939-7.324v7.324zm22.905-22.062v22.062h-6.613V18.663h6.613z"/><path fill-rule="evenodd" clip-rule="evenodd" d="M204.341 35.12v-.029h-6.524c-.089.386-.8 2.046-5.189 2.046h-.029c-3.648 0-5.248-1.245-5.634-3.114h17.465v-1.097c0-3.884-1.719-8.6-11.09-8.6h-1.808c-8.63 0-11.061 3.945-11.061 8.037v.652c0 4.181 2.728 8.155 11.238 8.155h1.69c9.52 0 10.942-3.885 10.942-6.05zm-11.95-7.086h.03c3.351 0 4.892 1.008 5.337 2.698h-10.674c.504-1.69 1.986-2.698 5.307-2.698zm62.371-9.371h-6.643v8.244c-.741-.653-3.025-2.52-8.006-2.52h-.475c-7.146 0-9.786 3.676-9.786 7.946v.564c0 4.477 2.966 8.214 10.053 8.214h.385c5.13 0 7.443-2.195 7.888-2.817v2.431h6.584V18.663zm-6.643 13.997v.118c0 2.046-2.076 4.122-5.991 4.122h-.148c-3.884 0-5.367-2.194-5.367-4.122v-.118c0-2.076 1.156-4.093 5.308-4.093h.148c3.914 0 6.05 2.017 6.05 4.093z"/></g><defs><clipPath id="clip0_96_1239"><path fill="#fff" transform="translate(.908)" d="M0 0h253.874v60H0z"/></clipPath></defs></svg>