<svg width="222" height="50" fill="none" xmlns="http://www.w3.org/2000/svg"><path d="M64.924 38.484a22.45 22.45 0 01-.9-.413 8.334 8.334 0 01-1.277-.788c-.4-.3-.688-.613-.863-.939-.15-.325.013-.6.488-.825.275.25.65.55 1.126.9.5.35.976.614 1.426.789a43.29 43.29 0 004.017.037 26.592 26.592 0 003.79-.488 17.917 17.917 0 003.604-1.2 17.208 17.208 0 003.416-2.14c1.226-1.026 2.026-1.965 2.402-2.815.4-.876.475-1.677.225-2.403-.225-.75-.713-1.439-1.464-2.064-.725-.65-1.601-1.251-2.627-1.802a27.81 27.81 0 00-3.228-1.576c-1.151-.5-2.252-.976-3.303-1.427a51.407 51.407 0 01-2.853-1.388c-.85-.45-1.476-.914-1.877-1.389-.1-.425.113-.926.638-1.501.526-.576 1.252-1.164 2.177-1.764a28.368 28.368 0 013.19-1.84 40.6 40.6 0 013.68-1.689 46.34 46.34 0 013.678-1.276c1.2-.35 2.252-.563 3.153-.638.9-.1 1.588-.038 2.064.188.475.225.638.65.488 1.276-.175.025-.626.137-1.351.338-.726.2-1.614.45-2.665.75-1.026.3-2.152.65-3.378 1.051-1.201.4-2.39.826-3.566 1.277a46.539 46.539 0 00-3.266 1.313c-1 .45-1.789.889-2.364 1.314-.576.425-.901.813-.976 1.163-.05.35.287.651 1.013.901 3.654 1.101 6.519 2.277 8.596 3.529 2.102 1.226 3.578 2.477 4.429 3.753.85 1.251 1.176 2.49.975 3.716-.2 1.226-.75 2.365-1.651 3.416-.876 1.05-2.027 1.989-3.453 2.815-1.427.8-2.94 1.426-4.542 1.876a18.32 18.32 0 01-4.767.713c-1.576.026-2.977-.225-4.204-.75zm22.821 0c-.75-.25-1.326-.626-1.726-1.126a4.438 4.438 0 01-.75-1.727 6.333 6.333 0 01-.076-1.952c.1-.7.25-1.363.45-1.989.751-.8 1.59-1.714 2.515-2.74a57.853 57.853 0 013.003-3.078c1.051-1 2.14-1.927 3.266-2.777 1.15-.876 2.314-1.54 3.49-1.99.4-.175.713-.162.939.038.25.175.425.463.525.863.1.4.138.863.113 1.389 0 .525-.038 1.038-.113 1.539-.075.5-.175.95-.3 1.351-.125.4-.25.676-.376.826-.3.35-.888.763-1.764 1.238-.85.476-1.801 1.001-2.852 1.577a98.116 98.116 0 00-3.153 1.727c-1.051.6-1.914 1.2-2.59 1.801-.676.576-1.076 1.151-1.201 1.727-.125.575.225 1.1 1.05 1.576.852.1 1.878.063 3.079-.112 1.226-.2 2.464-.45 3.716-.751a188.01 188.01 0 003.678-.976c1.176-.35 2.139-.626 2.89-.826l.451.413c-.551.726-1.452 1.389-2.703 1.99a24.26 24.26 0 01-4.054 1.5 26.552 26.552 0 01-4.241.752c-1.376.1-2.465.012-3.266-.263zm8.971-14.338c-.025-.025-.212.087-.563.337-.35.226-.788.538-1.314.939-.5.375-1.05.8-1.651 1.276-.576.45-1.114.876-1.614 1.276-.475.4-.876.75-1.201 1.051-.326.275-.463.413-.413.413.4.075.913.025 1.539-.15.65-.2 1.314-.476 1.99-.826.7-.35 1.363-.738 1.989-1.163.625-.45 1.113-.889 1.463-1.314.376-.426.563-.8.563-1.126.025-.326-.237-.563-.788-.713z" fill="#03FFA1"/><path d="M103.022 38.484c-.726-.526-1.201-1.189-1.426-1.99-.201-.8-.226-1.663-.075-2.59.15-.95.412-1.926.788-2.927.4-1.001.826-1.964 1.276-2.89.475-.926.926-1.777 1.351-2.553.451-.775.801-1.413 1.051-1.914.075-.15.25-.513.526-1.088.3-.576.613-1.201.938-1.877.325-.676.626-1.301.901-1.877l.563-1.126c.075-.125.175-.363.3-.713.15-.375.313-.776.488-1.201.175-.425.363-.826.563-1.201.225-.4.451-.688.676-.864.25-.175.488-.2.713-.075.25.125.488.5.713 1.127-.1.25-.35.75-.751 1.5l-1.351 2.703a465.329 465.329 0 01-1.764 3.491 178.554 178.554 0 00-1.839 3.866 118.35 118.35 0 00-1.689 3.829 47.776 47.776 0 00-1.314 3.378c-.325 1-.525 1.839-.6 2.515-.051.65.075 1.05.375 1.2.35.176.801.25 1.351.226.576-.05 1.164-.125 1.764-.225.601-.1 1.189-.2 1.764-.3.576-.126 1.076-.176 1.502-.15.1.224.025.45-.225.675-.251.2-.601.388-1.051.563-.451.15-.976.288-1.577.413-.575.1-1.138.175-1.689.225a9.35 9.35 0 01-1.426.038c-.401-.025-.676-.088-.826-.188zm11.673-.451c-.05-.05-.075-.187-.075-.413 0-.225.025-.362.075-.412l3.153-7.244h-3.566c-.075 0-.15-.05-.225-.15-.05-.1-.1-.213-.15-.338-.025-.15-.05-.288-.075-.413-.025-.15-.013-.263.037-.338a12.899 12.899 0 001.051-.413c.226-.1.438-.188.639-.263.2-.075.337-.137.412-.188.075-.024.276-.1.601-.225.35-.125.713-.25 1.088-.375.401-.15.764-.288 1.089-.413.325-.125.525-.213.6-.263.301-.2.651-.688 1.051-1.463a75.37 75.37 0 001.427-2.853 215.207 215.207 0 011.726-3.528 39.305 39.305 0 012.027-3.641 22.32 22.32 0 012.29-3.116c.801-.925 1.626-1.576 2.477-1.951a3.74 3.74 0 012.703-.188c.925.275 1.876 1.013 2.852 2.214.175.25.3.526.376.826.075.276.087.563.037.864a.811.811 0 01-.676.075 1.872 1.872 0 01-.638-.376 9.748 9.748 0 01-.488-.525c-.15-.2-.25-.35-.3-.45-1.676-.276-3.015-.2-4.016.225a5.793 5.793 0 00-2.44 1.876c-.625.826-1.176 1.815-1.651 2.966a49.217 49.217 0 01-1.652 3.565c-.175.3-.388.689-.638 1.164a67.157 67.157 0 01-1.276 2.552l-.225.488v.45c0 .1.313.176.938.226.626.05 1.326.125 2.102.225.801.1 1.564.25 2.29.45.75.176 1.238.438 1.463.789l-.412.412c-1.427-.075-2.628-.1-3.604-.075-.976.025-1.826.188-2.552.488s-1.364.789-1.914 1.464c-.551.65-1.114 1.577-1.689 2.778-.201.425-.463.976-.789 1.651l-.976 1.952a50.49 50.49 0 00-.825 1.652c-.225.45-.351.688-.376.713l-.45.413a5.538 5.538 0 01-.45-.376c-.201-.225-.326-.388-.376-.488zm16.553.451c1.026-3.303 1.952-5.918 2.777-7.845.851-1.952 1.552-3.316 2.102-4.091.576-.776.964-1.026 1.164-.75.2.274.175.975-.075 2.101-.225 1.126-.726 2.64-1.501 4.542-.751 1.877-1.815 4.028-3.191 6.456-.2.075-.438.087-.713.037a.702.702 0 01-.563-.45zm6.568-18.054c-.05-.125-.075-.35-.075-.676 0-.325.025-.525.075-.6.576-.2 1.014-.226 1.314-.076.3.15.488.376.563.676.075.275.063.576-.037.9-.075.326-.213.576-.413.752-.2.15-.438.175-.713.075-.251-.125-.488-.476-.714-1.051zm5.743 18.054c-.75-.25-1.326-.626-1.726-1.126a4.426 4.426 0 01-.751-1.727 6.339 6.339 0 01-.075-1.952c.1-.7.25-1.363.45-1.989.751-.8 1.589-1.714 2.515-2.74a57.896 57.896 0 013.003-3.078c1.051-1 2.139-1.927 3.265-2.777 1.151-.876 2.315-1.54 3.491-1.99.4-.175.713-.162.938.038.251.175.426.463.526.863.1.4.138.863.113 1.389 0 .525-.038 1.038-.113 1.539-.075.5-.175.95-.3 1.351-.125.4-.251.676-.376.826-.3.35-.888.763-1.764 1.238-.851.476-1.801 1.001-2.852 1.577a98.227 98.227 0 00-3.153 1.727c-1.051.6-1.915 1.2-2.59 1.801-.676.576-1.076 1.151-1.201 1.727-.125.575.225 1.1 1.051 1.576.85.1 1.876.063 3.078-.112a50.93 50.93 0 003.715-.751c1.277-.325 2.503-.65 3.679-.976 1.176-.35 2.139-.626 2.89-.826l.45.413c-.55.726-1.451 1.389-2.702 1.99a24.268 24.268 0 01-4.054 1.5 26.547 26.547 0 01-4.241.752c-1.377.1-2.465.012-3.266-.263zm8.971-14.338c-.025-.025-.213.087-.563.337-.35.226-.788.538-1.314.939-.5.375-1.051.8-1.651 1.276-.576.45-1.114.876-1.614 1.276-.476.4-.876.75-1.201 1.051-.326.275-.463.413-.413.413.4.075.913.025 1.539-.15.65-.2 1.313-.476 1.989-.826a17.17 17.17 0 001.989-1.163c.626-.45 1.114-.889 1.464-1.314.376-.426.563-.8.563-1.126.025-.326-.237-.563-.788-.713zm5.443 14.338c-.351-.526-.451-1.051-.301-1.577.175-.55.463-.963.864-1.238.4-.3.838-.413 1.313-.338.476.05.839.388 1.089 1.013.15.376.125.776-.075 1.201a2.59 2.59 0 01-.789 1.014c-.35.25-.725.388-1.126.413-.4.05-.725-.113-.975-.488zm6.343 0c-.726-.526-1.201-1.189-1.426-1.99-.201-.8-.226-1.663-.076-2.59.151-.95.413-1.926.789-2.927.4-1.001.825-1.964 1.276-2.89.475-.926.926-1.777 1.351-2.553.451-.775.801-1.413 1.051-1.914.075-.15.25-.513.526-1.088.3-.576.613-1.201.938-1.877.325-.676.626-1.301.901-1.877l.563-1.126c.075-.125.175-.363.3-.713.15-.375.313-.776.488-1.201.175-.425.363-.826.563-1.201.225-.4.45-.688.676-.864.25-.175.488-.2.713-.075.25.125.488.5.713 1.127-.1.25-.35.75-.751 1.5l-1.351 2.703a506.705 506.705 0 01-1.764 3.491 178.554 178.554 0 00-1.839 3.866 118.35 118.35 0 00-1.689 3.829 47.776 47.776 0 00-1.314 3.378c-.325 1-.526 1.839-.601 2.515-.05.65.075 1.05.376 1.2.35.176.8.25 1.351.226.576-.05 1.164-.125 1.764-.225.601-.1 1.189-.2 1.764-.3.576-.126 1.076-.176 1.502-.15.1.224.025.45-.226.675-.25.2-.6.388-1.051.563-.45.15-.975.288-1.576.413-.576.1-1.139.175-1.689.225a9.353 9.353 0 01-1.426.038c-.401-.025-.676-.088-.826-.188zm10.585 0c1.026-3.303 1.951-5.918 2.777-7.845.851-1.952 1.552-3.316 2.102-4.091.576-.776.963-1.026 1.164-.75.2.274.175.975-.075 2.101-.226 1.126-.726 2.64-1.502 4.542-.75 1.877-1.814 4.028-3.19 6.456-.2.075-.438.087-.713.037a.7.7 0 01-.563-.45zm6.568-18.054c-.05-.125-.075-.35-.075-.676 0-.325.025-.525.075-.6.576-.2 1.014-.226 1.314-.076.3.15.488.376.563.676.075.275.062.576-.038.9-.075.326-.212.576-.413.752-.2.15-.437.175-.713.075-.25-.125-.488-.476-.713-1.051zm4.692 17.603c-.526-.3-.901-.775-1.126-1.426-.225-.65-.35-1.389-.375-2.215-.025-.825.025-1.689.15-2.59.125-.9.275-1.776.45-2.627.175-.85.35-1.614.526-2.29.175-.675.3-1.2.375-1.576a.34.34 0 01.375 0c.15.075.288.188.413.338.15.125.263.25.338.375l.15.15c.075.876.075 1.74 0 2.59-.05.826-.125 1.652-.225 2.478-.075.825-.15 1.664-.225 2.515-.05.85-.05 1.713 0 2.59.2.375.613.387 1.238.037.626-.375 1.389-.963 2.29-1.764a62.188 62.188 0 002.928-2.89 366.28 366.28 0 003.153-3.341 430.822 430.822 0 012.965-3.078c.926-.976 1.701-1.714 2.327-2.214.651-.526 1.101-.738 1.351-.638.25.075.213.6-.112 1.576-.601.525-1.314 1.314-2.14 2.365a767.834 767.834 0 01-2.702 3.415 129.294 129.294 0 01-3.041 3.604c-1.051 1.2-2.114 2.24-3.19 3.115-1.051.85-2.077 1.451-3.078 1.802-1.001.325-1.939.225-2.815-.3zm20.982.451c-.751-.25-1.326-.626-1.727-1.126a4.455 4.455 0 01-.751-1.727 6.339 6.339 0 01-.075-1.952c.1-.7.251-1.363.451-1.989.751-.8 1.589-1.714 2.515-2.74a57.874 57.874 0 013.002-3.078c1.051-1 2.14-1.927 3.266-2.777 1.151-.876 2.315-1.54 3.491-1.99.4-.175.713-.162.938.038.25.175.425.463.525.863.101.4.138.863.113 1.389 0 .525-.037 1.038-.113 1.539-.075.5-.175.95-.3 1.351-.125.4-.25.676-.375.826-.3.35-.888.763-1.764 1.238-.851.476-1.802 1.001-2.853 1.577a98.227 98.227 0 00-3.153 1.727c-1.051.6-1.914 1.2-2.59 1.801-.675.576-1.076 1.151-1.201 1.727-.125.575.225 1.1 1.051 1.576.851.1 1.877.063 3.078-.112 1.226-.2 2.465-.45 3.716-.751a188.14 188.14 0 003.678-.976c1.176-.35 2.14-.626 2.89-.826l.451.413c-.551.726-1.451 1.389-2.703 1.99a24.257 24.257 0 01-4.053 1.5 26.559 26.559 0 01-4.242.752c-1.376.1-2.465.012-3.265-.263zm8.971-14.338c-.026-.025-.213.087-.564.337-.35.226-.788.538-1.313.939-.501.375-1.051.8-1.652 1.276-.575.45-1.113.876-1.614 1.276-.475.4-.876.75-1.201 1.051-.325.275-.463.413-.413.413.401.075.914.025 1.539-.15.651-.2 1.314-.476 1.99-.826.7-.35 1.363-.738 1.989-1.163.625-.45 1.113-.889 1.464-1.314.375-.426.563-.8.563-1.126.025-.326-.238-.563-.788-.713zM45.243 1.52a.117.117 0 00-.098-.08l-1.342-.137-.544-1.234a.116.116 0 00-.213 0l-.544 1.234-1.342.136a.117.117 0 00-.065.203l1.005.899-.285 1.318a.116.116 0 00.172.124l1.166-.678 1.165.678a.116.116 0 00.172-.125l-.285-1.318 1.006-.899a.115.115 0 00.032-.122zM.897 35.649c0 7.581 6.146 13.727 13.727 13.727h17.78c.11 0 .215-.014.316-.04h1.127c7.582 0 13.728-6.146 13.728-13.728v-7.033a1.248 1.248 0 10-2.497 0v7.033c0 6.203-5.028 11.231-11.23 11.231H27.1c-.11 0-.215.014-.316.04h-12.16c-6.203 0-11.232-5.028-11.232-11.23V18.355c0-6.203 5.029-11.23 11.231-11.23h4.914a1.248 1.248 0 000-2.498h-4.914C7.043 4.627.897 10.773.897 18.355v17.294z" fill="#03FFA1"/><path d="M33.38 26.34c0 4.575-3.8 8.284-8.487 8.284s-8.487-3.709-8.487-8.284c0-4.576 3.8-8.285 8.487-8.285 4.688 0 8.488 3.71 8.488 8.285zm12.165-14.708c.104.011.19.081.223.18a.26.26 0 01-.074.275l-2.266 2.026.642 2.97a.262.262 0 01-.102.267.261.261 0 01-.286.015l-2.626-1.529-2.626 1.53a.26.26 0 01-.286-.015.262.262 0 01-.102-.267l.642-2.97-2.265-2.026a.261.261 0 01.148-.456l3.023-.307 1.226-2.78a.262.262 0 01.48 0l1.226 2.78 3.023.307zm-8.668-7.928a.117.117 0 01.1.08.115.115 0 01-.034.122l-1.005.9.285 1.317a.116.116 0 01-.172.126l-1.166-.679-1.165.679a.115.115 0 01-.127-.007.116.116 0 01-.045-.118l.285-1.318-1.005-.9a.116.116 0 01.065-.202l1.342-.136.544-1.233a.116.116 0 01.212 0l.545 1.233 1.341.136z" fill="#03FFA1"/></svg>