<svg width="61" height="60" fill="none" xmlns="http://www.w3.org/2000/svg"><g clip-path="url(#clip0_96_1162)"><path d="M48.292 0H12.017C5.604 0 .404 5.2.404 11.613v36.249c0 6.413 5.2 11.612 11.613 11.612h36.275c6.414 0 11.613-5.199 11.613-11.612v-36.25C59.905 5.2 54.705 0 48.292 0z" fill="#03FFA1"/><path fill-rule="evenodd" clip-rule="evenodd" d="M25.943 8.088L5.3 28.701l20.65 20.623 17.223-17.278 5.07 5.085-4.973 5.044-1.713-1.745-3.503 3.434 4.978 4.95 11.975-11.806-11.76-11.796-17.387 17.35-13.878-13.859 13.97-13.953 7.366 7.314-8.544 8.533 3.342 3.335L40.01 22.055 25.943 8.088z" fill="#028957"/></g><defs><clipPath id="clip0_96_1162"><path fill="#fff" transform="translate(.404)" d="M0 0h60v60H0z"/></clipPath></defs></svg>