<svg width="251" height="30" fill="none" xmlns="http://www.w3.org/2000/svg"><g clip-path="url(#clip0_96_1177)" fill="#03FFA1"><path d="M13.641 11.507c-3.325 0-4.501-.699-4.501-2.137 0-1.356 1.176-2.22 4.501-2.22h7.625c3.528 0 4.907 1.603 4.907 3.165h8.233C34.406 3.288 29.62 0 19.644 0h-4.38C6.869 0 .866 2.26.866 9.452c0 6.575 4.015 9.164 14.398 9.164h7.218c2.758 0 3.853.781 3.853 1.973 0 1.397-1.014 2.26-3.853 2.26h-8.476c-3.934 0-5.312-1.52-5.312-3.164H.46C.46 26.712 5.246 30 15.223 30h5.191c10.382 0 14.397-3.904 14.397-9.575 0-6.247-4.785-8.918-14.762-8.918h-6.408zM54.681 30c9.977 0 14.397-3.575 14.397-15V.616h-8.516V15c0 5.548-.973 7.356-6.165 7.356h-3.082c-5.19 0-6.164-1.808-6.164-7.356V.616h-8.517V15c0 11.425 4.42 15 14.397 15h3.65zm41.056-9.493L83.571.617H71.526v28.767h8.517l-.284-19.89 12.166 19.89h12.045V.616h-8.516l.283 19.89zm37.244-3.452c3.123-.863 4.543-2.836 4.543-6.945 0-7.11-2.961-9.494-9.652-9.494h-21.454v28.768h8.516v-8.59h11.68c1.906 0 2.677.658 2.677 2.877v5.713h8.638V23.26c0-3.657-1.541-5.507-4.948-6.205zm-7.178-9c2.312 0 3.082.657 3.082 2.877 0 2.219-.77 2.876-3.082 2.876h-10.869V8.055h10.869zM153.716 0c-10.098 0-14.56 3.575-14.56 15s4.462 15 14.56 15h4.948c10.098 0 14.559-3.575 14.559-15s-4.461-15-14.559-15h-4.948zm0 22.356c-5.232 0-6.246-1.808-6.246-7.356s1.014-7.356 6.246-7.356h4.948c5.231 0 6.245 1.808 6.245 7.356s-1.014 7.356-6.245 7.356h-4.948zM189.004 0c-10.099 0-14.56 3.575-14.56 15s4.461 15 14.56 15h4.948c10.097 0 14.558-3.575 14.558-15s-4.461-15-14.558-15h-4.948zm0 22.356c-5.232 0-6.246-1.808-6.246-7.356s1.014-7.356 6.246-7.356h4.948c5.232 0 6.246 1.808 6.246 7.356s-1.014 7.356-6.246 7.356h-4.948zM250.896.616h-13.383l-6.691 22.603L224.129.616H210.34v28.768h8.314l-.324-22.316 6.611 22.316h11.355l6.61-22.316-.325 22.316h8.315V.616z"/></g><defs><clipPath id="clip0_96_1177"><path fill="#fff" transform="translate(.46)" d="M0 0h250.435v30H0z"/></clipPath></defs></svg>