<svg width="294" height="60" fill="none" xmlns="http://www.w3.org/2000/svg"><path d="M273.347 16.243h17.336l2.778-4.79h-27.944c1.644.794 2.866 2.056 1.54 4.366l-5.932 10.298c-.794 1.365-1.914 3.389-1.14 4.52.746 1.246 3.37 1.635 5.184 1.635h16.294l2.778-4.818h-15.938c-.832 0-1.066-.567-.638-1.337l5.682-9.874zm-82.585-.417l-5.913 10.29c-.793 1.366-1.909 3.39-1.139 4.521.746 1.246 3.37 1.635 5.183 1.635h16.274l2.778-4.818h-15.952c-.834 0-1.068-.567-.635-1.337l5.695-9.874h17.334l2.778-4.79h-27.95c1.651.806 2.873 2.056 1.547 4.373zm63.053.06l-9.524 16.505h6.598l12.094-20.938h-10.668c1.678.806 2.856 2.111 1.5 4.433zM226.64 32.331l9.24-16.028h11.064l2.814-4.85h-31.436c1.704.794 3.232 2.024 1.818 4.46l-.23.398h9.604l-9.234 16.028 6.36-.008zm-60.653-20.878c1.262.508 1.925 1.587 1.123 2.976-.288.473-.63.911-1.019 1.306l-15.478 16.624 7.969-.139 14.958-15.977h2.861l-1.794 7.806h-5.556l-4.599 4.846h9.08l-.794 3.448h6.953l4.591-20.906-18.295.016zm-28.653 16.029l9.267-16.029h-10.648c1.643.794 2.818 2.143 1.5 4.433L127.98 32.33h20.069l2.778-4.849h-13.493zm-25.606-16.029c1.258.508 1.924 1.587 1.123 2.976a7.094 7.094 0 01-1.024 1.306L96.369 32.359l7.973-.139L119.3 16.243h2.845l-1.798 7.806h-5.556l-4.595 4.846h9.076l-.794 3.448h6.957l4.592-20.906-18.299.016zM95.378 28.3l3.945-6.83H88.65c1.671.793 2.85 2.111 1.496 4.429l-.912 1.587h-9.426c-.893 0-1.051-.504-.58-1.337l5.664-9.842h17.366l2.822-4.854H77.03c1.671.794 2.858 2.084 1.496 4.433L72.63 26.145c-.13.18-.248.369-.357.563-.706 1.222-1.17 2.56-.857 3.6.452 1.516 3.766 2.023 5.64 2.023h15.996l2.326-4.032z" fill="#03FFA1"/><path fill-rule="evenodd" clip-rule="evenodd" d="M24.491 11.628c3.243 2.13 6.747 2.698 9.954 2.698 3.206 0 6.71-.567 9.949-2.698C49.755 7.477 56.089.21 56.089.21S44.148 0 43.32 0c-.46 0-.73.512-1.084 1.19a7.298 7.298 0 01-1.15 1.727c-1.191 1.246-3.513 2.282-6.64 2.282-3.128 0-5.66-1.036-6.687-2.282a10.123 10.123 0 01-.977-1.488C26.337.635 25.988.016 25.464.016c-.83 0-12.664.21-12.664.21s6.437 7.25 11.691 11.402zM65.876 5.6L68.987.206H62.76l-8.334 8.41L65.876 5.6zM39.4 22.898c1.6-2.774 3.846-5.528 7.31-7.266 6.279-2.568 15.736-4.417 15.736-4.417S56.66 21.66 56.244 22.378c-.229.399-.803.378-1.55.35h-.014a7.299 7.299 0 00-2.071.13c-1.675.397-3.719 1.91-5.282 4.616-1.564 2.707-1.93 5.417-1.365 6.933.217.551.483 1.082.793 1.587.453.77.818 1.397.564 1.842-.417.722-6.513 10.866-6.513 10.866s-3.075-9.207-4.044-15.839c-.226-3.869 1.04-7.19 2.64-9.965zM34.39 60l-3.115-5.393 3.115-11.422 3.115 11.422L34.39 60zM22.277 15.632c3.465 1.738 5.727 4.488 7.314 7.266 1.604 2.774 2.865 6.096 2.655 9.957-.968 6.632-4.044 15.839-4.044 15.839S22.086 38.55 21.69 37.828c-.254-.445.11-1.072.563-1.841a10.53 10.53 0 00.794-1.588c.563-1.516.198-4.222-1.365-6.933-1.564-2.71-3.627-4.214-5.302-4.611a7.27 7.27 0 00-2.068-.131c-.77.047-1.333.047-1.563-.35-.417-.718-6.207-11.163-6.207-11.163s9.46 1.853 15.735 4.421zM.03.206h6.23l8.335 8.41L3.144 5.6.03.206z" fill="#03FFA1"/><path d="M59.53 48.765h1.329l1.885-3.195h6.651l.94-1.599h-6.65l.94-1.6h6.651l.94-1.59h-7.984l-4.703 7.984zm19.831 0h1.33l4.703-7.985h-1.33l-4.703 7.985zM94.42 45.57c-.529.881-.711 1.634-.547 2.259.15.623.591.936 1.33.936h5.317l2.826-4.794H98.69l-.94 1.588h3.322l-.941 1.587h-3.969a.595.595 0 01-.662-.468 1.519 1.519 0 01.274-1.127l1.88-3.195h6.632l.941-1.587h-7.985L94.42 45.57zm27.424-1.599h-5.321l1.881-3.19h-1.334l-4.703 7.984h1.334l1.881-3.195h5.322l-1.885 3.195h1.333l4.703-7.985h-1.329l-1.882 3.191zm14.12-1.599h3.103l-3.766 6.393h1.333l3.766-6.393h3.104l.936-1.592h-7.54l-.936 1.592zm34.891-1.592h-1.334l-4.703 7.985h7.985l.941-1.6h-6.656l3.767-6.385zm13.795 7.985h7.981l.945-1.6h-6.655l.944-1.595h6.651l.941-1.599h-6.651l.94-1.6h6.651l.941-1.59h-7.985l-4.703 7.984zm29.86-7.981h-5.324l-4.704 7.981h1.33l1.412-2.381h5.322l-1.412 2.381h1.334l2.82-4.794c.52-.877.704-1.631.552-2.254-.15-.623-.594-.933-1.33-.933zm-.55 3.175l-.472.794h-5.322l1.412-2.381h3.996a.596.596 0 01.664.468 1.59 1.59 0 01-.278 1.131v-.012zm12.234 1.611c-.528.881-.712 1.634-.548 2.259.152.623.592.936 1.33.936h5.318l2.826-4.794h-4.656l-.94 1.588h3.322l-.94 1.587h-3.99a.591.591 0 01-.422-.104.588.588 0 01-.24-.364 1.52 1.52 0 01.274-1.127l1.88-3.195h6.636l.94-1.587h-7.968l-2.822 4.801zm26.481 0a3.584 3.584 0 01-1.052 1.127 2.16 2.16 0 01-1.214.469h-3.996l3.762-6.382h-1.33l-4.706 7.981h5.326a4.361 4.361 0 002.436-.937 7.24 7.24 0 002.108-2.258l2.818-4.786h-1.338l-2.814 4.786zm11.296 3.195h7.984l.94-1.6h-6.65l.94-1.595h6.652l.94-1.599h-6.652l.94-1.6h6.652l.94-1.59h-7.984l-4.702 7.984z" fill="#03FFA1"/></svg>