<svg width="145" height="73" fill="none" xmlns="http://www.w3.org/2000/svg"><g clip-path="url(#clip0_96_1165)"><g clip-path="url(#clip1_96_1165)" fill="#03FFA1"><path d="M106.574 0h5.506v23.302c3.208-4.038 7.702-7.49 13.025-8.21 2.806-.502 5.7-.24 8.363.757a15.46 15.46 0 016.73 4.897c2.875 3.83 3.194 8.765 3.384 13.337.091 7.72 0 15.44 0 23.16h-5.505c0-7.72.046-15.448-.038-23.168-.038-3.705-.297-7.735-2.791-10.75-2.623-3.38-7.512-4.076-11.535-3.231-6.379 1.548-11.185 7.55-11.405 13.922-.472 7.728-.168 15.485-.259 23.228h-5.505c.015-19.077.025-38.158.03-57.244zM81.633 17.639c2.875-3.016 7.467-4.023 11.513-3.216 3.49.741 6.38 2.964 8.942 5.305l-3.506 3.475c-2.372-2.06-5.17-4.045-8.485-4.082-3.369-.23-6.722 2.63-6.433 6.016 0 2.912 2.669 4.727 4.95 6.09 4.273 2.535 9.314 4.483 12.067 8.795 3.368 5.639.76 13.53-5.2 16.434-6.304 3.253-14.334.74-18.699-4.446 1.13-1.244 2.269-2.48 3.414-3.704 2.974 3.282 7.84 5.853 12.303 3.875 3.954-1.519 5.947-6.794 3.186-10.18-3.589-3.942-9.261-5.083-13.162-8.662-4.676-3.749-5.178-11.484-.89-15.7zm-65.306-1.951c5.664-1.823 12.44-.593 16.568 3.763 3.65 3.624 4.281 8.966 4.487 13.797.167 7.994 0 15.989.091 23.983-1.817.037-3.627.044-5.444.037-.038-7.646.053-15.3-.054-22.968-.083-3.816-.304-7.988-2.904-11.077-2.281-2.808-6.16-3.668-9.642-3.416-5.247.43-9.778 4.142-11.923 8.713-1.353 2.786-1.391 5.928-1.52 8.958-.145 6.587 0 13.174-.077 19.768H.404V15.954H5.91v7.358c2.715-3.35 6.137-6.365 10.418-7.624zm29.077 2.092c.472-2.119 2.852-2.26 4.677-2.223 3.041.052 6.128 0 9.2 0H69.7c1.27 0 2.836-.185 3.939.556 1.102.741 1.284 2.141 1.284 3.408V30.77c-1.984-1.134-3.748-3.275-6.197-3.357H52.142c-2.122 0-5.445.608-6.555-1.719-.494-1.044-.327-2.282-.342-3.4a37.576 37.576 0 01.16-4.513zm.008 29.593c.486-2.075 2.806-2.223 4.615-2.223 2.912.052 5.832 0 8.752 0 3.391 0 6.79.06 10.182 0 1.383 0 3.041-.289 4.311.349 1.27.637 1.597 1.919 1.65 3.23.084 3.756 0 7.513 0 11.27-1.125-.742-2.22-1.482-3.323-2.223a3.671 3.671 0 00-1.353-.727 9.635 9.635 0 00-1.848 0c-2.958.06-5.931 0-8.896 0-2.784 0-5.582-.066-8.365 0-1.733.052-4.045.32-5.239-1.222-.829-1.06-.639-2.482-.646-3.705-.042-1.584.011-3.17.16-4.749zm-3.899-14.031c-.045-2.045 1.932-3.03 3.757-2.964 2.858.126 5.748 0 8.607 0H66.56c1.05 0 2.281-.155 3.179.445 1.475.963 1.52 2.719 1.406 4.253-.114 1.533.251 3.104-.099 4.63a3.154 3.154 0 01-1.056 1.816c-.913.74-2.076.592-3.186.63-2.844.088-5.696.081-8.54.066-3.148 0-6.296-.059-9.436 0a7.37 7.37 0 00-2.327.133 8.735 8.735 0 00-1.726.964c-1.11.74-2.129 1.578-3.277 2.223.008-4.046-.106-8.136.015-12.196z"/></g></g><defs><clipPath id="clip0_96_1165"><path fill="#fff" transform="translate(.404)" d="M0 0h144v73H0z"/></clipPath><clipPath id="clip1_96_1165"><path fill="#fff" transform="translate(.404)" d="M0 0h143.226v60H0z"/></clipPath></defs></svg>