<svg width="46" height="46" fill="none" xmlns="http://www.w3.org/2000/svg"><path d="M10.371 37.285h24.55a2.01 2.01 0 002.01-2.011v-24.55a2.011 2.011 0 00-2.01-2.01h-24.55a2.012 2.012 0 00-2.01 2.01v24.55a2.012 2.012 0 002.01 2.01zm-1.309-26.56a1.311 1.311 0 011.309-1.309h24.55a1.309 1.309 0 011.306 1.309v24.548a1.309 1.309 0 01-1.306 1.31h-24.55a1.311 1.311 0 01-1.309-1.31V10.726z" fill="#03FFA1"/><path d="M31.082 31.71a.31.31 0 00.31.326.308.308 0 00.308-.325.308.308 0 00-.309-.325.31.31 0 00-.309.325zm-8.432-.31a.304.304 0 00-.31.31.308.308 0 10.617 0 .308.308 0 00-.307-.31zm2.88-8.641a.304.304 0 01.113-.081.292.292 0 01.133-.03h.006l9.579.016V11.485a1.204 1.204 0 00-1.2-1.2h-2.42V17.1a1.911 1.911 0 01-1.902 1.912h-1.846a1.012 1.012 0 110-.703h1.849a1.207 1.207 0 001.2-1.209v-6.816H27.4v3.063a1.02 1.02 0 11-.702 0v-3.063H23v12.719a.352.352 0 01-.676.135.347.347 0 01-.026-.135V10.284h-3.592v4.504a1.914 1.914 0 01-1.91 1.912H9.928v1.61h3.135a.997.997 0 01.941-.661 1.012 1.012 0 11-.94 1.363H9.927v3.652h6.868a1.21 1.21 0 001.208-1.21v-1.852a1.008 1.008 0 11.702.001v1.854a1.914 1.914 0 01-1.91 1.911H9.928v3.635h11.35l4.251-4.244z" fill="#03FFA1"/><path d="M27.4 28.907v6.81h6.76a1.207 1.207 0 001.2-1.209V32.05h-3.02a1.007 1.007 0 11-.006-.704h3.028v-3.641h-6.76a1.197 1.197 0 00-1.203 1.202z" fill="#03FFA1"/><path d="M18.706 33.25v2.467h3.592v-3.064a1.007 1.007 0 01.352-1.954 1.008 1.008 0 01.35 1.954v3.064h3.695v-6.81a1.902 1.902 0 011.906-1.904h6.76v-3.635l-9.437-.014-4.252 4.245a.448.448 0 01-.112.082.504.504 0 01-.135.027H9.928v3.64h6.868a1.911 1.911 0 011.909 1.905l.001-.002z" fill="#03FFA1"/><path d="M11.13 35.717h6.875V33.25a1.207 1.207 0 00-1.21-1.201H9.929v2.46a1.208 1.208 0 001.202 1.208v-.002z" fill="#03FFA1"/></svg>